<svg width="40" height="39" viewBox="0 0 40 39" fill="none" xmlns="http://www.w3.org/2000/svg">
<path fill-rule="evenodd" clip-rule="evenodd" d="M19.8469 0C8.87207 0 0 8.93747 0 19.9943C0 28.8327 5.68464 36.3142 13.5707 38.9621C14.5567 39.1612 14.9179 38.5319 14.9179 38.0025C14.9179 37.539 14.8854 35.9502 14.8854 34.2947C9.36444 35.4866 8.21476 31.9112 8.21476 31.9112C7.32751 29.594 6.01289 28.9984 6.01289 28.9984C4.20589 27.7736 6.14451 27.7736 6.14451 27.7736C8.14894 27.906 9.20072 29.826 9.20072 29.826C10.9748 32.8712 13.8336 32.0108 14.9837 31.481C15.1478 30.19 15.6739 29.2962 16.2325 28.7998C11.8292 28.3363 7.19629 26.615 7.19629 18.9348C7.19629 16.75 7.98441 14.9625 9.23322 13.5724C9.03619 13.0759 8.34597 11.0232 9.43066 8.27569C9.43066 8.27569 11.1064 7.74594 14.885 10.3281C16.5027 9.89039 18.171 9.66775 19.8469 9.66588C21.5227 9.66588 23.2309 9.89784 24.8084 10.3281C28.5873 7.74594 30.2631 8.27569 30.2631 8.27569C31.3478 11.0232 30.6572 13.0759 30.4601 13.5724C31.7418 14.9625 32.4975 16.75 32.4975 18.9348C32.4975 26.615 27.8646 28.3029 23.4284 28.7998C24.1515 29.4287 24.7755 30.6202 24.7755 32.5072C24.7755 35.1885 24.743 37.3404 24.743 38.0021C24.743 38.5319 25.1045 39.1612 26.0901 38.9625C33.9762 36.3138 39.6608 28.8327 39.6608 19.9943C39.6933 8.93747 30.7888 0 19.8469 0Z" fill="#090909"/>
</svg>
