<svg width="44" height="34" viewBox="0 0 44 34" fill="none" xmlns="http://www.w3.org/2000/svg">
<path d="M42.377 13.9697C41.3209 13.2588 38.5458 12.9552 36.5282 13.4986C36.4194 11.489 35.3833 9.79557 33.4876 8.31801L32.7859 7.84694L32.3182 8.55326C31.3989 9.9488 31.0115 11.808 31.1488 13.498C31.2571 14.5393 31.6193 15.7098 32.3182 16.5591C29.6923 18.0823 27.2721 17.7365 16.5531 17.7365H0.00371539C-0.0447014 20.1568 0.344342 24.8128 3.30517 28.6029C3.63213 29.0216 3.99098 29.4266 4.38002 29.8168C6.78719 32.2274 10.4242 33.9949 15.8628 34C24.1597 34.0074 31.2684 29.5229 35.5923 18.6792C37.0152 18.7026 40.7712 18.9344 42.6094 15.3823C42.6544 15.3225 43.077 14.4402 43.077 14.4402L42.3764 13.9691L42.377 13.9697ZM10.8041 11.7562H6.15037V16.4099H10.8041V11.7562ZM16.8163 11.7562H12.1626V16.4099H16.8163V11.7562ZM22.8285 11.7562H18.1748V16.4099H22.8285V11.7562ZM28.8408 11.7562H24.1871V16.4099H28.8408V11.7562ZM4.79185 11.7562H0.138143V16.4099H4.79185V11.7562ZM10.8041 5.87837H6.15037V10.5321H10.8041V5.87837ZM16.8163 5.87837H12.1626V10.5321H16.8163V5.87837ZM22.8285 5.87837H18.1748V10.5321H22.8285V5.87837ZM22.8285 0H18.1748V4.65371H22.8285V0Z" fill="#1D63ED"/>
</svg>
