<svg width="35" height="34" viewBox="0 0 35 34" fill="none" xmlns="http://www.w3.org/2000/svg">
<g clip-path="url(#clip0_0_14)">
<path d="M0 12.1667C0 7.73292 0 5.51604 0.862865 3.82258C1.62186 2.33296 2.83296 1.12186 4.32258 0.362865C6.01604 -0.5 8.23292 -0.5 12.6667 -0.5H22.3333C26.7671 -0.5 28.984 -0.5 30.6774 0.362865C32.167 1.12186 33.3781 2.33296 34.1371 3.82258C35 5.51604 35 7.73292 35 12.1667V21.8333C35 26.2671 35 28.484 34.1371 30.1774C33.3781 31.667 32.167 32.8781 30.6774 33.6371C28.984 34.5 26.7671 34.5 22.3333 34.5H12.6667C8.23292 34.5 6.01604 34.5 4.32258 33.6371C2.83296 32.8781 1.62186 31.667 0.862865 30.1774C0 28.484 0 26.2671 0 21.8333V12.1667Z" fill="#001E36"/>
<path d="M18.2707 24.0338H10.1763C10.0393 24.0338 9.97079 23.9588 9.97085 23.8087V10.8108C9.9557 10.7051 10.0496 10.6115 10.1558 10.6266H12.6622C12.7447 10.615 12.8175 10.689 12.806 10.7699V21.4548H18.7022C18.8254 21.4548 18.8734 21.5162 18.846 21.639L18.4762 23.8496C18.473 23.9609 18.379 24.0327 18.2707 24.0338Z" fill="#31A8FF"/>
<path d="M20.3271 13.8464H22.5665C22.69 13.8475 22.8009 13.9325 22.8336 14.0511C22.9977 14.4142 23.0179 14.852 23.0185 15.2439C23.4025 14.7984 23.8656 14.4272 24.3846 14.1489C24.9413 13.835 25.5724 13.6759 26.2119 13.6883C26.318 13.6732 26.412 13.7668 26.3968 13.8725V16.3493C26.3968 16.4449 26.3281 16.4926 26.1914 16.4926C25.2436 16.4274 23.7679 16.6505 23.0791 17.3932V23.8331C23.0791 23.9559 23.0243 24.0174 22.9148 24.0173H20.5121C20.394 24.0342 20.2899 23.9284 20.3066 23.8126V16.8201C20.3066 15.8831 20.327 14.9179 20.1833 13.9897C20.1612 13.9043 20.2433 13.8249 20.3271 13.8464Z" fill="#31A8FF"/>
</g>
<defs>
<clipPath id="clip0_0_14">
<rect width="35" height="34" fill="white"/>
</clipPath>
</defs>
</svg>
