<svg width="35" height="34" viewBox="0 0 35 34" fill="none" xmlns="http://www.w3.org/2000/svg">
<g clip-path="url(#clip0_0_26)">
<path d="M0 12.1667C0 7.73292 0 5.51604 0.862865 3.82258C1.62186 2.33296 2.83296 1.12186 4.32258 0.362865C6.01604 -0.5 8.23292 -0.5 12.6667 -0.5H22.3333C26.7671 -0.5 28.984 -0.5 30.6774 0.362865C32.167 1.12186 33.3781 2.33296 34.1371 3.82258C35 5.51604 35 7.73292 35 12.1667V21.8333C35 26.2671 35 28.484 34.1371 30.1774C33.3781 31.667 32.167 32.8781 30.6774 33.6371C28.984 34.5 26.7671 34.5 22.3333 34.5H12.6667C8.23292 34.5 6.01604 34.5 4.32258 33.6371C2.83296 32.8781 1.62186 31.667 0.862865 30.1774C0 28.484 0 26.2671 0 21.8333V12.1667Z" fill="#470137"/>
<path d="M18.2071 10.8734L14.3858 17.1574L18.4741 23.8303C18.5591 23.9816 18.4741 24.015 18.3509 24.015H15.4336C15.2281 24.015 15.0843 24.0078 15.0022 23.8712C14.728 23.3391 14.4541 22.8103 14.1804 22.2849C13.9062 21.7597 13.6152 21.2241 13.3073 20.6781C12.9991 20.1325 12.6944 19.5798 12.3931 19.0201C12.1189 19.566 11.8142 20.1119 11.5199 20.6576C11.2252 21.2036 10.9342 21.746 10.6468 22.2849C10.3592 22.8241 10.0647 23.3597 9.76341 23.8917C9.70852 24.0145 9.6125 24.0272 9.47574 24.0272H6.66122C6.55064 24.0272 6.53729 23.9465 6.5996 23.8508L10.5646 17.3621L6.70228 10.8529C6.63212 10.7601 6.69251 10.6611 6.80503 10.6687H9.70173C9.82716 10.6618 9.93801 10.7078 10.0099 10.812C10.2564 11.3579 10.5304 11.9038 10.8317 12.4495C11.1328 12.9955 11.4375 13.5345 11.7459 14.0666C12.0541 14.5988 12.3588 15.1378 12.619 15.6836C12.8928 15.1242 13.1702 14.5784 13.4511 14.0461C13.7317 13.5139 14.0193 12.9783 14.3139 12.4393C14.6083 11.9004 14.8925 11.3648 15.1665 10.8325C15.2029 10.7157 15.2899 10.6566 15.4131 10.6687H18.1043C18.2071 10.6687 18.2496 10.805 18.2071 10.8734Z" fill="#FF61F6"/>
<path d="M24.1031 24.2808C22.2913 24.3082 20.3935 23.5836 19.4396 21.978C18.9738 21.2072 18.7409 20.2418 18.7411 19.0817C18.7333 18.1422 18.9743 17.2173 19.4396 16.4002C20.6402 14.3154 23.0588 13.5343 25.3563 13.7393V9.70686C25.3563 9.61153 25.3974 9.56357 25.4796 9.56357H28.0681C28.1389 9.5535 28.2015 9.61587 28.1914 9.68636V21.7836C28.1914 22.2827 28.2423 22.78 28.2736 23.2778C28.2787 23.3628 28.228 23.4469 28.1503 23.4825C26.8713 24.014 25.4874 24.2746 24.1031 24.2808ZM25.3563 21.7426V16.1546C23.4799 15.6481 21.6581 17.0366 21.6583 18.9588C21.6138 20.9462 23.3773 22.3193 25.3563 21.7426Z" fill="#FF61F6"/>
</g>
<defs>
<clipPath id="clip0_0_26">
<rect width="35" height="34" fill="white"/>
</clipPath>
</defs>
</svg>
