<svg width="35" height="34" viewBox="0 0 35 34" fill="none" xmlns="http://www.w3.org/2000/svg">
<g clip-path="url(#clip0_0_20)">
<path d="M0 12.1667C0 7.73292 0 5.51604 0.862865 3.82258C1.62186 2.33296 2.83296 1.12186 4.32258 0.362865C6.01604 -0.5 8.23292 -0.5 12.6667 -0.5H22.3333C26.7671 -0.5 28.984 -0.5 30.6774 0.362865C32.167 1.12186 33.3781 2.33296 34.1371 3.82258C35 5.51604 35 7.73292 35 12.1667V21.8333C35 26.2671 35 28.484 34.1371 30.1774C33.3781 31.667 32.167 32.8781 30.6774 33.6371C28.984 34.5 26.7671 34.5 22.3333 34.5H12.6667C8.23292 34.5 6.01604 34.5 4.32258 33.6371C2.83296 32.8781 1.62186 31.667 0.862865 30.1774C0 28.484 0 26.2671 0 21.8333V12.1667Z" fill="#00005B"/>
<path d="M15.0821 20.7866H10.3364L9.3708 23.7808C9.34399 23.8918 9.23874 23.9705 9.12426 23.965H6.72059C6.58352 23.965 6.53558 23.89 6.57678 23.7398L10.6856 11.9984C10.7267 11.8756 10.7678 11.7556 10.8089 11.5985C10.8626 11.3254 10.8902 11.0478 10.8911 10.7696C10.8793 10.6873 10.9524 10.6145 11.0349 10.6262H14.3014C14.3971 10.6262 14.4519 10.6604 14.4657 10.7286L19.1293 23.7603C19.1704 23.8969 19.1293 23.9651 19.006 23.965H16.3353C16.2416 23.9753 16.1521 23.913 16.1298 23.8217L15.0821 20.7866ZM11.076 18.2619H14.3219C13.7886 16.4916 13.1868 14.7446 12.699 12.9605C12.1462 14.8112 11.6358 16.5275 11.076 18.2619Z" fill="#9999FF"/>
<path d="M22.5978 19.6304C22.7866 21.1508 24.1009 21.8756 25.5562 21.8447C26.3767 21.829 27.2538 21.7053 28.0205 21.4039C28.0889 21.3495 28.1233 21.3834 28.1233 21.5062V23.4508C28.1297 23.552 28.0862 23.6423 28 23.6964C27.0469 24.117 25.9529 24.2438 24.9193 24.2277C21.8373 24.2277 19.7207 22.1182 19.7216 19.049C19.7135 16.1405 21.6559 13.6868 24.6727 13.6868C27.23 13.6224 29.0004 15.6114 29.0076 18.087C29.0076 18.5379 28.9817 18.9903 28.9254 19.4379C28.9145 19.5302 28.8337 19.6017 28.7405 19.6017C26.6981 19.6017 24.6457 19.6304 22.5978 19.6304ZM22.5978 17.7658C23.736 17.7658 24.8808 17.8048 26.0183 17.7555C26.1893 17.7385 26.3163 17.707 26.3163 17.5343C26.2926 16.6165 25.4952 15.8617 24.57 15.8968C23.4521 15.8295 22.7367 16.7461 22.5978 17.7658Z" fill="#9999FF"/>
</g>
<defs>
<clipPath id="clip0_0_20">
<rect width="35" height="34" fill="white"/>
</clipPath>
</defs>
</svg>
