<svg width="35" height="34" viewBox="0 0 35 34" fill="none" xmlns="http://www.w3.org/2000/svg">
<g clip-path="url(#clip0_0_17)">
<path d="M0 12.6667C0 8.23292 0 6.01604 0.862865 4.32258C1.62186 2.83296 2.83296 1.62186 4.32258 0.862865C6.01604 0 8.23292 0 12.6667 0H22.3333C26.7671 0 28.984 0 30.6774 0.862865C32.167 1.62186 33.3781 2.83296 34.1371 4.32258C35 6.01604 35 8.23292 35 12.6667V22.3333C35 26.7671 35 28.984 34.1371 30.6774C33.3781 32.167 32.167 33.3781 30.6774 34.1371C28.984 35 26.7671 35 22.3333 35H12.6667C8.23292 35 6.01604 35 4.32258 34.1371C2.83296 33.3781 1.62186 32.167 0.862865 30.6774C0 28.984 0 26.7671 0 22.3333V12.6667Z" fill="#001E36"/>
<path d="M8.75 23.9235V10.8411C8.75 10.7521 8.78828 10.7013 8.8776 10.7013C10.1963 10.7013 11.5143 10.625 12.8333 10.625C14.9736 10.625 17.2911 11.3359 18.1034 13.511C18.2948 14.045 18.3969 14.5917 18.3969 15.1638C18.3969 16.2572 18.1417 17.1598 17.6313 17.8718C16.2055 19.8606 13.7342 19.8297 11.519 19.8297V23.9108C11.5363 24.0316 11.4303 24.0888 11.3276 24.0888H8.90313C8.80104 24.0888 8.75 24.0379 8.75 23.9235ZM11.5318 13.155V17.4268C12.4101 17.4893 13.3292 17.4961 14.1732 17.2234C15.1049 16.9623 15.6151 16.1789 15.6151 15.2401C15.641 14.4401 15.1923 13.6726 14.4284 13.3839C13.5946 13.0471 12.4318 13.0269 11.5318 13.155Z" fill="#31A8FF"/>
<path d="M26.3557 16.5828C25.9696 16.3852 25.5584 16.2406 25.1333 16.153C24.5871 16.0281 22.4326 15.5908 22.4318 16.6852C22.4509 17.2961 23.4492 17.5955 23.8904 17.77C25.439 18.2865 27.1914 19.2097 27.1569 21.0655C27.2043 23.3759 24.9 24.2994 22.9248 24.2997C21.8965 24.31 20.8253 24.1553 19.8842 23.7265C19.7944 23.6803 19.7366 23.5815 19.7404 23.4809V21.2702C19.7303 21.1816 19.8282 21.1041 19.9048 21.1679C20.8268 21.7096 21.9198 21.9726 22.9864 21.9866C23.4573 21.9866 24.3905 21.9423 24.3835 21.2702C24.3835 20.6253 23.2671 20.3287 22.8221 20.1649C22.177 19.9412 21.5654 19.6313 21.0039 19.2438C20.2193 18.7001 19.727 17.8284 19.7404 16.8694C19.7358 14.694 21.8569 13.7176 23.7671 13.7172C24.6601 13.71 25.6191 13.7743 26.4504 14.1265C26.5699 14.1607 26.5947 14.283 26.5942 14.3926V16.46C26.6018 16.5883 26.455 16.632 26.3557 16.5828Z" fill="#31A8FF"/>
</g>
<defs>
<clipPath id="clip0_0_17">
<rect width="35" height="34" fill="white"/>
</clipPath>
</defs>
</svg>
