<svg width="42" height="34" viewBox="0 0 42 34" fill="none" xmlns="http://www.w3.org/2000/svg">
<path d="M16.4712 18.8708C16.6237 16.1501 17.9574 13.7536 19.9693 12.0545C21.9426 10.3864 24.5982 9.3665 27.4953 9.3665C30.3923 9.3665 33.0454 10.3839 35.0204 12.0587C37.0322 13.7577 38.3643 16.1543 38.5185 18.8725C38.6711 21.6677 37.5461 24.2644 35.5728 26.1887C33.561 28.1465 30.7 29.3758 27.4953 29.3758C24.2905 29.3758 21.4237 28.1465 19.4135 26.1887C17.436 24.2602 16.3178 21.6635 16.4712 18.8708Z" fill="white"/>
<path d="M21.8394 19.1153C21.9174 17.7194 22.6023 16.4893 23.6342 15.6176C24.723 14.7257 26.0876 14.2383 27.4957 14.2383C28.9038 14.2383 30.2683 14.7257 31.3572 15.6176C32.3882 16.4893 33.0731 17.7194 33.1519 19.1136C33.2299 20.5481 32.6489 21.877 31.643 22.8676C30.6111 23.8725 29.1425 24.503 27.4986 24.503C25.8548 24.503 24.3836 23.8725 23.3517 22.8676C22.3357 21.8804 21.7607 20.5481 21.8394 19.1153Z" fill="#265787"/>
<path d="M12.8322 21.9398C12.8415 22.4858 13.0158 23.5476 13.2774 24.3766C13.8424 26.1624 14.7911 27.8034 16.0571 29.1848C17.4144 30.6762 19.071 31.8651 20.919 32.6742C22.9351 33.553 25.1118 34.0044 27.3115 34C29.5111 33.9955 31.6859 33.5352 33.6984 32.6482C35.5464 31.8312 37.2026 30.6365 38.5604 29.1413C39.8246 27.7552 40.7727 26.1115 41.3393 24.3238C41.6143 23.45 41.7898 22.548 41.8624 21.635C41.9316 20.7442 41.9035 19.8484 41.7785 18.9637C41.5332 17.2423 40.9292 15.5915 40.0056 14.1178C39.1492 12.7472 38.0539 11.541 36.7715 10.5564L23.6811 0.519493C23.6694 0.510281 23.6593 0.50107 23.6468 0.492696C22.7884 -0.165488 21.344 -0.162975 20.4001 0.492696C19.4562 1.14837 19.3364 2.26293 20.1855 2.95963L25.6435 7.39777L9.00721 7.41535H8.98458C7.60647 7.42037 6.28703 8.3214 6.02297 9.46275C5.75389 10.6234 6.68772 11.5864 8.11865 11.5914V11.5964L16.5516 11.5805L1.50051 23.1121L1.44267 23.1548C0.0234772 24.2443 -0.435894 26.0497 0.458539 27.1927C1.36555 28.3541 3.29524 28.3567 4.73372 27.1994L12.9488 20.4852C12.8821 20.9675 12.8432 21.4531 12.8322 21.9398ZM33.9348 24.9711C32.2432 26.6928 29.8743 27.6692 27.3125 27.6742C24.7508 27.6792 22.3759 26.7112 20.6843 24.9946C19.8846 24.1927 19.2675 23.2278 18.8753 22.1659C18.5056 21.1558 18.3625 20.077 18.4562 19.0056C18.5458 17.96 18.8551 16.9451 19.364 16.027C19.8753 15.1088 20.5582 14.2972 21.3759 13.6363C23.0206 12.2965 25.1146 11.5721 27.305 11.5696C29.4954 11.5671 31.5902 12.2847 33.2366 13.6195C34.0542 14.2775 34.7373 15.0866 35.2484 16.0027C35.7575 16.9194 36.0676 17.9328 36.1588 18.9771C36.2518 20.0479 36.1088 21.1261 35.7396 22.1357C35.3486 23.1992 34.733 24.1662 33.9348 24.9711Z" fill="#EA7600"/>
</svg>
