<svg width="35" height="34" viewBox="0 0 35 34" fill="none" xmlns="http://www.w3.org/2000/svg">
<g clip-path="url(#clip0_0_23)">
<path d="M0 12.1667C0 7.73292 0 5.51604 0.862865 3.82258C1.62186 2.33296 2.83296 1.12186 4.32258 0.362865C6.01604 -0.5 8.23292 -0.5 12.6667 -0.5H22.3333C26.7671 -0.5 28.984 -0.5 30.6774 0.362865C32.167 1.12186 33.3781 2.33296 34.1371 3.82258C35 5.51604 35 7.73292 35 12.1667V21.8333C35 26.2671 35 28.484 34.1371 30.1774C33.3781 31.667 32.167 32.8781 30.6774 33.6371C28.984 34.5 26.7671 34.5 22.3333 34.5H12.6667C8.23292 34.5 6.01604 34.5 4.32258 33.6371C2.83296 32.8781 1.62186 31.667 0.862865 30.1774C0 28.484 0 26.2671 0 21.8333V12.1667Z" fill="#00005B"/>
<path d="M8.75 23.1579V9.78346C8.75 9.69248 8.7884 9.64048 8.87799 9.64048C10.2006 9.64048 11.5226 9.5625 12.8455 9.5625C14.9922 9.5625 17.3166 10.2893 18.1313 12.5129C18.3233 13.0588 18.4257 13.6177 18.4257 14.2026C18.4257 15.3204 18.1697 16.2432 17.6578 16.9711C16.2277 19.0043 13.7491 18.9727 11.5273 18.9727V23.1449C11.5446 23.2684 11.4383 23.3269 11.3353 23.3269H8.90358C8.80119 23.3269 8.75 23.2749 8.75 23.1579ZM11.5401 12.149V16.5162C12.421 16.5801 13.3429 16.587 14.1894 16.3082C15.1238 16.0413 15.6356 15.2403 15.6356 14.2806C15.6616 13.4628 15.2115 12.6781 14.4453 12.383C13.6091 12.0387 12.4428 12.018 11.5401 12.149Z" fill="#9999FF"/>
<path d="M20.1606 12.9752H22.4066C22.5305 12.9763 22.6417 13.0631 22.6745 13.1844C22.8391 13.5556 22.8593 14.0032 22.8599 14.4039C23.2451 13.9484 23.7096 13.5689 24.2302 13.2844C24.7885 12.9635 25.4215 12.8009 26.0629 12.8135C26.1693 12.7981 26.2636 12.8938 26.2484 13.0019V15.5339C26.2484 15.6317 26.1794 15.6804 26.0423 15.6804C25.0917 15.6138 23.6116 15.8419 22.9208 16.6011V23.1848C22.9208 23.3104 22.8658 23.3732 22.7559 23.3732H20.3461C20.2277 23.3904 20.1233 23.2822 20.1399 23.1639V16.0152C20.1399 15.0573 20.1604 14.0706 20.0163 13.1217C19.9942 13.0344 20.0765 12.9532 20.1606 12.9752Z" fill="#9999FF"/>
</g>
<defs>
<clipPath id="clip0_0_23">
<rect width="35" height="34" fill="white"/>
</clipPath>
</defs>
</svg>
