<svg width="34" height="34" viewBox="0 0 34 34" fill="none" xmlns="http://www.w3.org/2000/svg">
<path d="M0 27.8135V34H5.41541C2.78454 32.502 0.925461 30.2254 0 27.8135Z" fill="#FF6600"/>
<path d="M22.7258 21.3618C22.7183 15.6458 18.1305 10.142 11.2354 9.904C6.35039 9.73536 2.54927 11.5271 0 14.1743V20.1419C1.73329 15.1351 6.50951 12.8381 10.5112 12.8783C15.5105 12.9286 19.3667 16.6991 19.3891 20.9613C19.4109 25.0351 17.7041 28.0338 13.0979 28.7729C10.5867 29.1762 6.65639 27.7033 6.83114 23.909C6.92158 21.9527 8.44475 20.8477 10.191 20.9279C8.48283 23.2168 10.7445 24.895 12.3438 24.5529C14.3232 24.13 15.1297 22.3722 15.1297 21.0082C15.1297 19.57 13.7745 17.2465 10.4106 17.3261C6.24772 17.4247 3.62841 20.4193 3.54001 24.1212C3.42917 28.7831 7.78924 31.8472 12.2649 31.9029C18.8356 31.9845 22.734 27.6741 22.7251 21.3618H22.7258Z" fill="#FF6600"/>
<path d="M0 0V9.7816C2.92394 7.53765 6.72915 6.08588 11.2354 6.0886C20.8824 6.09404 27.007 12.8347 27.0043 21.3387C27.0023 27.2464 24.2456 31.6887 19.929 34H33.9993V0H0Z" fill="#FF6600"/>
</svg>
