<svg width="35" height="34" viewBox="0 0 35 34" fill="none" xmlns="http://www.w3.org/2000/svg">
<path d="M28.6965 0H6.1752C2.76473 0 0 2.76473 0 6.1752V27.8248C0 31.2353 2.76473 34 6.1752 34H28.6965C32.1069 34 34.8717 31.2353 34.8717 27.8248V6.1752C34.8717 2.76473 32.1069 0 28.6965 0Z" fill="#1E3101"/>
<path d="M6.40656 23.7965V8.91814C6.4043 8.89584 6.40648 8.87331 6.41297 8.85184C6.41945 8.83038 6.43011 8.81041 6.44434 8.79309C6.45857 8.77576 6.47608 8.76142 6.49587 8.75088C6.51566 8.74035 6.53734 8.73383 6.55966 8.7317H6.57055C6.80395 8.71605 7.14758 8.70448 7.59941 8.69631C8.05123 8.68815 8.582 8.68134 9.19033 8.67318C9.79866 8.66501 10.4458 8.66161 11.1317 8.66161C13.0034 8.66161 14.5553 8.9812 15.7874 9.62038C16.9551 10.199 17.9212 11.1163 18.5596 12.2524C19.1757 13.3675 19.4835 14.6501 19.483 16.1004C19.502 17.1149 19.3407 18.1248 19.0067 19.0829C18.7121 19.903 18.2662 20.6606 17.692 21.3162C17.1498 21.9306 16.5142 22.4558 15.8085 22.8724C15.1088 23.285 14.3522 23.5922 13.563 23.7842C12.7901 23.9766 11.9969 24.0749 11.2004 24.0768H9.45843C8.84284 24.0768 8.26989 24.073 7.73958 24.0652C7.20927 24.0575 6.81143 24.0457 6.54605 24.0299C6.45351 24.0299 6.40656 23.9523 6.40656 23.7965ZM9.63467 11.5379V21.223C9.80615 21.223 9.9622 21.2268 10.1028 21.2345L10.5356 21.2577C10.6833 21.2658 10.8513 21.2699 11.0385 21.2699C11.7461 21.2787 12.4501 21.1678 13.1207 20.9419C13.7211 20.7381 14.2684 20.4026 14.7225 19.96C15.1798 19.5037 15.5312 18.9524 15.752 18.3453C16.0038 17.6474 16.1267 16.9096 16.1147 16.1678C16.129 15.4694 16.0098 14.7747 15.7636 14.121C15.5443 13.5569 15.1959 13.0521 14.7463 12.6471C14.2867 12.2422 13.7435 11.9434 13.1554 11.772C12.4983 11.5793 11.8164 11.4848 11.1317 11.4917C10.82 11.4917 10.5587 11.4951 10.3485 11.5032C10.1382 11.5114 9.90005 11.523 9.63467 11.5379Z" fill="#99E83F"/>
<path d="M28.6767 15.4465C28.2377 15.2204 27.77 15.0547 27.2866 14.9538C26.7526 14.8311 26.2067 14.7681 25.6589 14.766C25.3627 14.7585 25.067 14.794 24.7811 14.8715C24.5994 14.9123 24.438 15.0159 24.3252 15.1641C24.2489 15.2826 24.2082 15.4206 24.2081 15.5615C24.2127 15.6982 24.2619 15.8297 24.3483 15.9358C24.4852 16.0955 24.6521 16.2269 24.8396 16.3223C25.1733 16.5008 25.5171 16.6598 25.8692 16.7986C26.6543 17.0626 27.4045 17.4211 28.1031 17.8662C28.5793 18.1664 28.9733 18.5803 29.2497 19.0706C29.4823 19.5349 29.599 20.0485 29.5899 20.5677C29.6042 21.2534 29.4083 21.927 29.0285 22.4981C28.6221 23.0776 28.0579 23.5283 27.4029 23.7965C26.6902 24.1081 25.8122 24.2639 24.7688 24.2639C24.1063 24.2706 23.445 24.2078 22.7955 24.0768C22.3051 23.9842 21.8292 23.827 21.3801 23.6093C21.3291 23.5828 21.2866 23.5423 21.2577 23.4925C21.2288 23.4428 21.2146 23.3858 21.2168 23.3283V20.8017C21.2139 20.777 21.2178 20.7519 21.2281 20.7293C21.2384 20.7066 21.2548 20.6872 21.2753 20.6731C21.2955 20.6619 21.3185 20.657 21.3414 20.659C21.3644 20.6611 21.3862 20.67 21.404 20.6847C21.9388 21.0147 22.5237 21.2557 23.1357 21.3985C23.6923 21.5381 24.2632 21.6125 24.8369 21.6203C25.3813 21.6203 25.783 21.5503 26.042 21.4101C26.1582 21.3568 26.2565 21.271 26.325 21.163C26.3935 21.0551 26.4292 20.9296 26.4278 20.8017C26.4278 20.5999 26.311 20.405 26.0774 20.2172C25.8437 20.0294 25.3674 19.8026 24.6484 19.5368C23.914 19.2811 23.2177 18.927 22.5784 18.4841C22.1214 18.1658 21.7448 17.7452 21.4788 17.2559C21.2483 16.795 21.1316 16.2856 21.1386 15.7704C21.1403 15.1512 21.3134 14.5445 21.6387 14.0175C22.0062 13.4359 22.5342 12.9729 23.1589 12.6845C23.8448 12.3416 24.7026 12.1701 25.7324 12.1701C26.3352 12.1649 26.9376 12.2079 27.5336 12.2987C27.9534 12.353 28.3632 12.4676 28.7502 12.6389C28.782 12.648 28.8111 12.6644 28.8355 12.6867C28.8598 12.709 28.8786 12.7367 28.8904 12.7675C28.9062 12.8247 28.914 12.8838 28.9135 12.9431V15.3056C28.9154 15.333 28.9101 15.3604 28.8982 15.3851C28.8863 15.4098 28.8681 15.431 28.8455 15.4465C28.8204 15.463 28.7911 15.4717 28.7611 15.4717C28.7311 15.4717 28.7018 15.463 28.6767 15.4465Z" fill="#99E83F"/>
</svg>
