<svg width="25" height="34" viewBox="0 0 25 34" fill="none" xmlns="http://www.w3.org/2000/svg">
<g clip-path="url(#clip0_0_36)">
<path d="M24.219 16.3829C24.219 23.1204 18.8788 28.5795 12.2935 28.5795C5.70825 28.5795 0.37085 23.1204 0.37085 16.3829C0.37085 9.64543 5.71102 4.18628 12.2963 4.18628C18.8816 4.18628 24.219 9.64819 24.219 16.3829Z" fill="#D43732"/>
<path d="M0.854899 19.4044C0.854899 19.4044 -0.00838208 6.68481 11.7123 6.32235L10.8933 4.95825L4.53215 7.09432L2.71427 9.18335L1.12329 12.227L0.218506 15.7714L0.492432 18.1344L0.854899 19.4044Z" fill="#EF3E3A"/>
<path d="M3.59701 25.3118C1.37516 23.0374 0 19.8969 0 16.4299C0 12.963 1.37516 9.81974 3.59701 7.54533C5.81885 5.27091 8.89567 3.86255 12.2935 3.86255C15.6885 3.86255 18.7681 5.27091 20.9899 7.54533C23.1592 9.76441 24.5205 12.808 24.5841 16.1754V16.6845C24.5177 20.0518 23.1564 23.0955 20.9899 25.3145C18.7681 27.589 15.6912 28.9973 12.2935 28.9973C8.89844 28.9973 5.82161 27.5862 3.59701 25.3118ZM4.12826 8.06274C2.03646 10.2043 0.741536 13.1594 0.741536 16.4299C0.741536 19.7004 2.03646 22.6555 4.12826 24.7944C6.22282 26.936 9.10596 28.2558 12.2962 28.2558C15.4865 28.2558 18.3696 26.936 20.4642 24.7944C22.556 22.6555 23.8509 19.6977 23.8509 16.4299C23.8509 13.1594 22.556 10.2043 20.4642 8.06274C18.3696 5.92391 15.4865 4.60132 12.2962 4.60132C9.10596 4.60409 6.22005 5.92391 4.12826 8.06274Z" fill="#221E1F"/>
<path d="M17.3155 16.4521L15.4976 16.7232L13.0434 16.9972L11.4552 17.0414L9.91121 16.9972L8.72974 16.6319L7.68384 15.4975L6.86483 13.1816L6.68498 12.6807L5.59481 12.3155L4.95841 11.2696L4.50464 9.7727L5.00545 8.45288L6.18693 8.04614L7.13875 8.49992L7.59253 9.49878L8.13761 9.40747L8.32023 9.17781L8.13761 8.13468L8.09334 6.81486L8.36727 4.99976L8.3562 3.96216L9.18351 2.6368L10.6389 1.5909L13.1817 0.500732L15.9985 0.910238L18.4527 2.68107L19.5872 4.49894L20.3149 5.816L20.4947 9.08651L19.9496 11.9032L18.9508 14.4018L17.9962 15.7188L17.3155 16.4521Z" fill="#F0D6B8"/>
<path d="M15.7688 24.3103L9.27482 24.5814V25.6744L9.81991 29.49L9.54598 29.8054L5.00545 28.2614L4.68726 27.7164L4.23348 22.5837L3.18758 19.493L2.96069 18.7681L6.59367 16.2696L7.73088 15.8158L8.72974 17.0415L9.59025 17.8163L10.5891 18.1317L11.0429 18.2701L11.588 20.6302L11.9975 21.1311L13.0434 20.7658L12.3157 22.1742L16.2696 24.0391L15.7688 24.3103Z" fill="#345061"/>
<path d="M5.00537 8.45573L6.18685 8.04623L7.13867 8.5L7.59245 9.49887L8.13753 9.40756L8.27588 8.86247L8.00195 7.81657L8.27588 5.3208L8.04622 3.95671L8.86523 3.00212L10.6361 1.59652L10.1353 0.913086L7.63949 2.1416L6.59359 2.95785L6.00423 4.23063L5.09391 5.45638L4.82275 6.90902L5.00537 8.45573Z" fill="#6D6B6E"/>
<path d="M6.86475 4.18639C6.86475 4.18639 7.54541 2.50686 10.2708 1.68785C12.9963 0.868842 10.4064 1.0985 10.4064 1.0985L7.4541 2.23294L6.31966 3.36738L5.81885 4.2777L6.86475 4.18639Z" fill="#DDD9D8"/>
<path d="M5.50342 8.13749C5.50342 8.13749 4.54883 4.95829 8.18457 4.50175L8.04899 3.95667L5.55046 4.54602L4.82275 6.90898L5.00537 8.45292L5.50342 8.13749Z" fill="#DDD9D8"/>
<path d="M6.95605 12.3626L7.55094 11.7871C7.55094 11.7871 7.81934 11.8175 7.86361 12.1357C7.90788 12.4539 8.04622 15.3149 9.99967 16.8617C10.1795 17.0028 8.54704 16.6348 8.54704 16.6348L7.0944 14.3631L6.95605 12.3626Z" fill="#F5E2CC"/>
<path d="M15.3176 11.4993C15.3176 11.4993 15.4228 10.1241 15.7935 10.2292C16.1643 10.3344 16.1643 10.7052 16.1643 10.7052C16.1643 10.7052 15.2623 11.2862 15.3176 11.4993Z" fill="#F5E2CC"/>
<path d="M19.0863 6.45801C19.0863 6.45801 18.3364 6.61572 18.2673 7.27702C18.1981 7.93555 19.0863 7.4126 19.2219 7.36833L19.0863 6.45801Z" fill="#F5E2CC"/>
<path d="M13.5911 6.5022C13.5911 6.5022 12.5923 6.63778 12.5923 7.27417C12.5923 7.91056 13.7267 7.86353 14.0477 7.59237L13.5911 6.5022Z" fill="#F5E2CC"/>
<path d="M7.40991 9.45463C7.40991 9.45463 5.68335 8.40873 5.50073 9.41036C5.31811 10.4092 4.91138 11.1369 5.77189 12.1801L5.18254 11.9974L4.63745 10.5891L4.45483 9.22774L5.50073 8.13757L6.68221 8.22888L7.36287 8.77397L7.40991 9.45463Z" fill="#F5E2CC"/>
<path d="M8.22892 6.59356C8.22892 6.59356 9.00089 2.59535 12.9078 1.82338C16.1257 1.18699 17.8136 1.95896 18.4499 2.68666C18.4499 2.68666 15.5889 -0.719426 12.8635 0.323706C10.1381 1.3696 8.13761 3.27602 8.18465 4.50453C8.26212 6.59356 8.22892 6.59356 8.22892 6.59356Z" fill="#F5E2CC"/>
<path d="M18.7681 3.14047C18.7681 3.14047 17.451 3.0962 17.4067 4.27491C17.4067 4.27491 17.4067 4.45477 17.498 4.64015C17.498 4.64015 18.5439 3.45867 19.1776 4.09506L18.7681 3.14047Z" fill="#F5E2CC"/>
<path d="M12.999 4.76466C12.999 4.76466 12.7721 2.95233 11.2254 4.00653C10.2265 4.68719 10.3151 5.64178 10.4977 5.82163C10.6775 6.00425 10.6305 6.36948 10.7688 6.11769C10.9072 5.8659 10.8602 5.04966 11.361 4.82277C11.8618 4.59588 12.6808 4.34132 12.999 4.76466Z" fill="#F5E2CC"/>
<path d="M8.72957 17.0415L4.46021 18.9507C4.46021 18.9507 6.23104 25.9925 5.32349 28.1729L4.68709 27.946L4.64282 25.2676L3.45858 20.1764L2.95776 18.7681L7.40975 15.7715L8.72957 17.0415Z" fill="#4A728C"/>
<path d="M9.16683 20.9373L9.77279 21.676V24.4015H9.04785C9.04785 24.4015 8.95654 22.4923 8.95654 22.2654C8.95654 22.0385 9.04785 21.2195 9.04785 21.2195L9.16683 20.9373Z" fill="#4A728C"/>
<path d="M9.18343 24.811L7.13867 24.9023L7.72803 25.3119L9.18343 25.5387V24.811Z" fill="#4A728C"/>
<path d="M16.1782 24.3545L17.8577 24.3102L18.2673 28.491L16.5407 28.7179L16.1782 24.3545Z" fill="#345061"/>
<path d="M16.6321 24.3545L19.1777 24.2189C19.1777 24.2189 20.2236 21.5848 20.2236 21.4492C20.2236 21.3136 21.1339 17.6336 21.1339 17.6336L19.0891 15.4976L18.6796 15.1323L17.5894 16.2225V20.4476L16.6321 24.3545Z" fill="#345061"/>
<path d="M17.7665 24.0391L16.1755 24.3573L16.4024 25.63C16.9918 25.904 17.9934 25.1763 17.9934 25.1763L17.7665 24.0391Z" fill="#4A728C"/>
<path d="M17.8135 16.0897L20.9927 18.4499L21.084 17.3597L18.6768 15.1351L17.8135 16.0897Z" fill="#4A728C"/>
<path d="M10.7577 33.3055L9.81974 29.49L9.35213 26.6732L9.27466 24.5814L13.5302 24.3573H16.1781L15.9374 29.1275L16.3442 32.8047L16.2999 33.4882L12.8495 33.7593L10.7577 33.3055Z" fill="white"/>
<path d="M15.586 24.3101C15.586 24.3101 15.3591 29.036 16.0398 32.3951C16.0398 32.3951 14.6785 33.2584 12.678 33.4853L16.4936 33.3497L16.9473 33.0758L16.4023 25.6244L16.2667 24.0334L15.586 24.3101Z" fill="#DDD9D8"/>
<path d="M18.3448 28.1258L20.1184 27.625L23.4802 27.4451L23.9783 25.9012L23.0707 23.2201L22.0248 23.0845L20.5722 23.5382L19.1777 24.2189L18.4361 24.0833L17.8606 24.3102L18.3448 28.1258Z" fill="white"/>
<path d="M18.3142 27.2182C18.3142 27.2182 19.4957 26.6731 19.6783 26.7174L19.1775 24.2188L19.7668 23.9919C19.7668 23.9919 20.1763 26.3549 20.1763 26.6261C20.1763 26.6261 22.7219 26.7616 22.946 26.7616C22.946 26.7616 23.4911 25.7157 23.3556 24.6256L23.8564 26.0782L23.9006 26.8972L23.1729 27.9874L22.3539 28.17L20.9926 28.1257L20.5388 27.5364L18.9478 27.7633L18.447 27.9459L18.3142 27.2182Z" fill="#DDD9D8"/>
<path d="M16.5269 23.9921L15.5281 21.4465L14.4822 19.9468C14.4822 19.9468 14.7091 19.3104 15.0273 19.3104C15.3455 19.3104 16.0732 19.3104 16.0732 19.3104L17.072 19.6729L16.9807 21.3524L16.5269 23.9921Z" fill="white"/>
<path d="M16.7232 23.1287C16.7232 23.1287 15.4504 20.6744 15.4504 20.312C15.4504 20.312 15.6773 19.7669 15.9955 19.9025C16.3137 20.038 16.9944 20.4033 16.9944 20.4033V19.54L15.4504 19.2218L14.4045 19.3574L16.1754 23.5382L16.5378 23.5825L16.7232 23.1287Z" fill="#DDD9D8"/>
<path d="M11.1674 17.1328L9.91121 16.9972L8.72974 16.6348V17.0415L9.30526 17.6779L11.1204 18.4969L11.1674 17.1328Z" fill="white"/>
<path d="M9.13639 17.2711C9.13639 17.2711 10.5448 17.8605 10.9985 17.7249L11.0428 18.27L9.77002 17.9961L8.99805 17.451L9.13639 17.2711Z" fill="#DDD9D8"/>
<path d="M18.3393 19.468C17.5673 19.4459 16.8728 19.3546 16.2613 19.183C16.3028 18.934 16.2253 18.6878 16.2862 18.5079C16.4578 18.3862 16.74 18.3889 16.9973 18.3585C16.776 18.2506 16.4633 18.2063 16.206 18.2672C16.2004 18.0929 16.123 17.9877 16.0759 17.8494C16.5103 17.6944 17.5341 16.679 18.1069 17.0165C18.3808 17.177 18.497 18.0901 18.5191 18.5328C18.5413 18.9036 18.4915 19.2744 18.3393 19.468Z" fill="#D43732"/>
<path d="M18.3393 19.468C17.5673 19.4459 16.8728 19.3546 16.2613 19.183C16.3028 18.934 16.2253 18.6878 16.2862 18.5079C16.4578 18.3862 16.74 18.3889 16.9973 18.3585C16.776 18.2506 16.4633 18.2063 16.206 18.2672C16.2004 18.0929 16.123 17.9877 16.0759 17.8494C16.5103 17.6944 17.5341 16.679 18.1069 17.0165C18.3808 17.177 18.497 18.0901 18.5191 18.5328C18.5413 18.9036 18.4915 19.2744 18.3393 19.468Z" stroke="#D43732" stroke-width="0.7881"/>
<path d="M14.6565 18.2064C14.6537 18.2645 14.6509 18.3226 14.6482 18.3835C14.4074 18.5412 14.0173 18.5412 13.7544 18.6712C14.1446 18.6878 14.4517 18.7819 14.7146 18.9147C14.709 19.0614 14.7035 19.208 14.698 19.3547C14.2553 19.6562 13.854 20.1073 13.3339 20.3895C13.0876 20.5223 12.2271 20.8682 11.9642 20.8073C11.8176 20.7741 11.8038 20.5887 11.7429 20.4172C11.6184 20.0464 11.3278 19.457 11.3002 18.9009C11.267 18.1953 11.1978 17.0166 11.9559 17.1632C12.5674 17.2795 13.2813 17.5617 13.7544 17.8218C14.0477 17.9795 14.2165 18.1759 14.6565 18.2064Z" fill="#D43732"/>
<path d="M14.6565 18.2064C14.6537 18.2645 14.6509 18.3226 14.6482 18.3835C14.4074 18.5412 14.0173 18.5412 13.7544 18.6712C14.1446 18.6878 14.4517 18.7819 14.7146 18.9147C14.709 19.0614 14.7035 19.208 14.698 19.3547C14.2553 19.6563 13.854 20.1073 13.3339 20.3895C13.0876 20.5223 12.2271 20.8682 11.9642 20.8073C11.8176 20.7741 11.8038 20.5887 11.7429 20.4172C11.6184 20.0464 11.3278 19.457 11.3002 18.9009C11.267 18.1953 11.1978 17.0166 11.9559 17.1632C12.5674 17.2795 13.2813 17.5617 13.7544 17.8218C14.0477 17.9795 14.2165 18.1759 14.6565 18.2064Z" stroke="#D43732" stroke-width="0.7881"/>
<path d="M15.0937 19.0475C15.0272 18.6656 14.9498 18.5549 14.9802 18.2202C16.0012 17.5395 16.1921 19.3906 15.0937 19.0475Z" fill="#D43732"/>
<path d="M15.0937 19.0475C15.0272 18.6656 14.9498 18.5549 14.9802 18.2202C16.0012 17.5395 16.1921 19.3906 15.0937 19.0475Z" stroke="#D43732" stroke-width="0.7881"/>
<path d="M16.5739 19.3601C16.5739 19.3601 16.2557 18.9063 16.4826 18.7708C16.7095 18.6352 16.9364 18.7708 17.0719 18.5439C17.2075 18.317 17.0719 18.1786 17.1162 17.9075C17.1605 17.6363 17.3901 17.5893 17.617 17.545C17.8439 17.5007 18.4803 17.4094 18.5716 17.6363L18.3005 16.8173L17.7554 16.6375L16.0288 17.6363L15.9375 18.1371V19.136L16.5739 19.3601Z" fill="#EF3E3A"/>
<path d="M11.8038 20.8571C11.7484 20.1488 11.6931 19.4404 11.6267 18.7321C11.5298 17.6751 11.8812 17.8577 12.7971 17.8577C12.9382 17.8577 13.6576 18.0265 13.7102 18.1317C13.9592 18.638 13.2951 18.5246 13.9952 18.9064C14.5845 19.2274 15.6304 18.71 15.3897 17.9933C15.2569 17.8328 14.6924 17.9435 14.4932 17.8384C14.1391 17.6558 13.7821 17.4704 13.428 17.2878C12.9769 17.0526 11.9338 16.7122 11.4524 17.0387C10.2322 17.8688 11.5298 19.9412 11.9643 20.8073L11.8038 20.8571Z" fill="#EF3E3A"/>
<path d="M12.9989 4.76459C11.7593 4.47683 11.1451 5.282 10.7715 6.12038C10.4367 6.03738 10.5696 5.5836 10.6553 5.35118C10.8767 4.74245 11.7704 3.93174 12.4981 4.03965C12.8108 4.08393 13.2369 4.37169 12.9989 4.76459Z" fill="#221E1F"/>
<path d="M19.0309 6.17297C19.0503 6.17297 19.0696 6.17297 19.089 6.17574C19.3685 6.7568 19.612 7.37105 19.9634 7.8857C19.7254 8.43632 18.1731 8.9233 18.1981 7.93551C18.5356 7.78886 19.1139 7.90507 19.4127 7.71692C19.2412 7.24377 18.9922 6.84257 19.0309 6.17297Z" fill="#221E1F"/>
<path d="M13.6326 6.18677C13.8982 6.67375 13.984 7.18286 14.3603 7.55363C14.5318 7.71964 14.8611 7.92163 14.6978 8.38094C14.6591 8.48885 14.3796 8.73234 14.2192 8.77938C13.6298 8.95369 12.2546 8.81535 12.7195 8.07935C13.2065 8.10148 13.8622 8.39477 14.2275 8.04338C13.948 7.59513 13.45 6.70972 13.6326 6.18677Z" fill="#221E1F"/>
<path d="M18.8095 11.1341C17.9213 11.7041 16.9308 12.3267 15.4754 12.18C15.1655 11.9089 15.0465 11.3084 15.3481 10.91C15.5058 11.1812 15.4062 11.6764 15.8434 11.7511C16.6679 11.8923 17.6308 11.2448 18.2229 11.0207C18.5909 10.3981 18.1925 10.1712 17.8605 9.77002C17.1798 8.95101 16.2695 7.93555 16.3027 6.7098C16.5794 6.51058 16.6015 7.01417 16.6402 7.10547C16.9944 7.93555 17.8881 8.99805 18.5411 9.70915C18.7016 9.88347 18.9645 10.0523 18.9921 10.1657C19.0779 10.5088 18.7763 10.91 18.8095 11.1341Z" fill="#221E1F"/>
<path d="M7.10002 10.5336C6.82332 10.3732 6.75415 9.67589 6.42765 9.65375C5.96004 9.62608 6.04582 10.5613 6.04858 11.1092C5.72762 10.8186 5.67228 9.91938 5.90747 9.4573C5.63631 9.32449 5.51733 9.60395 5.36792 9.70079C5.5616 8.30903 7.40715 9.0561 7.10002 10.5336Z" fill="#221E1F"/>
<path d="M19.3769 11.7152C18.9646 12.5038 18.378 13.3698 17.1661 13.3947C17.1412 13.1402 17.1218 12.7556 17.1688 12.6006C18.093 12.5121 18.6658 12.0389 19.3769 11.7152Z" fill="#221E1F"/>
<path d="M13.5635 12.2242C14.3382 12.631 15.7576 12.6753 16.8118 12.6448C16.8672 12.8745 16.8672 13.1595 16.87 13.4417C15.5169 13.5081 13.9176 13.1761 13.5635 12.2242Z" fill="#221E1F"/>
<path d="M13.4169 12.9851C13.9537 14.3298 15.791 14.1721 17.3432 14.1361C17.274 14.3105 17.1274 14.5152 16.942 14.5927C16.4439 14.7947 15.0743 14.9496 14.3826 14.5816C13.9454 14.3492 13.6632 13.8235 13.4252 13.5136C13.309 13.3669 12.7335 12.9851 13.4169 12.9851Z" fill="#221E1F"/>
<path d="M18.746 20.3951C18.1179 21.4714 17.5175 22.5754 16.7732 23.5244C17.0859 22.6058 17.2187 21.0674 17.2657 19.897C17.9187 19.5899 18.4776 19.9662 18.746 20.3951Z" fill="#81B0C4"/>
<path d="M22.1243 24.2604C21.4215 24.4015 20.929 25.0849 20.24 25.0406C20.6191 24.5094 21.2804 24.2853 22.1243 24.2604Z" fill="#221E1F"/>
<path d="M22.4342 25.3616C21.8614 25.4225 21.189 25.5165 20.6052 25.4667C20.8819 25.0461 21.9444 25.1928 22.4342 25.3616Z" fill="#221E1F"/>
<path d="M22.6335 26.3107C21.9888 26.3245 21.1891 26.3107 20.5776 26.2609C20.9401 25.8708 22.2157 26.117 22.6335 26.3107Z" fill="#221E1F"/>
<path d="M17.534 28.9061C17.6253 29.714 17.9462 30.5358 17.9075 31.4212C17.5506 31.5402 17.3486 31.6453 16.8699 31.6453C16.8367 30.8927 16.7343 29.7417 16.7675 29.0251C16.9999 29.0389 17.3458 28.8563 17.534 28.9061Z" fill="#DDD9D8"/>
<path d="M16.4965 16.9862C16.1728 17.1965 15.8988 17.4594 15.5862 17.6862C14.8972 17.7194 14.5209 17.6392 14.0173 17.2435C14.0256 17.2131 14.0754 17.2269 14.0782 17.1882C14.8142 17.5147 15.7522 17.0526 16.4965 16.9862Z" fill="#F0D6B8"/>
<path d="M12.6255 22.0109C12.8275 21.1338 13.6216 20.6772 14.3437 20.1958C15.0881 21.1393 15.5391 22.354 16.0399 23.5272C14.8612 23.1702 13.6576 22.5947 12.6255 22.0109Z" fill="#81B0C4"/>
<path d="M19.6838 23.4912C20.7851 22.9433 22.8464 22.0164 23.5354 23.4939C23.7899 24.039 24.0888 24.9604 24.2216 25.5193C24.407 26.3134 24.0196 27.9791 23.2034 28.2447C22.484 28.4799 21.6456 28.4661 20.7768 28.2918C20.6744 28.206 20.5609 28.0594 20.4807 27.9044C19.8637 27.8795 19.2826 27.9376 18.7929 28.1922C18.8399 28.6515 18.53 28.7234 18.2395 28.8175C18.0237 29.6697 18.6711 30.7848 18.5134 31.5623C18.4027 32.1157 17.7221 32.2042 17.2213 32.3066C17.2047 32.6137 17.2434 32.871 17.2766 33.1311C17.1631 33.5545 16.6485 33.7924 16.1588 33.8533C15.4587 33.9363 14.5982 34 13.7239 33.9972C12.5977 33.9944 11.4494 33.8865 10.5834 33.5738C10.1518 32.5196 9.81419 31.2358 9.45726 30.0294C7.95481 30.1899 6.73737 29.3819 5.59186 28.8507C5.19619 28.6653 4.64557 28.5657 4.49615 28.2503C4.35227 27.9459 4.41038 27.3566 4.37718 26.8032C4.28587 25.3893 4.20839 24.0252 3.83486 22.5781C3.66608 21.9279 3.37278 21.3551 3.1708 20.7298C2.98265 20.1487 2.65338 19.4321 2.56761 18.8538C2.44033 17.996 3.24827 17.949 3.76292 17.5755C4.56256 17 5.18789 16.6818 6.05117 16.1643C6.30849 16.0094 7.0777 15.622 7.16624 15.4422C7.34056 15.0852 6.86741 14.5872 6.74013 14.3077C6.54091 13.8678 6.43577 13.4943 6.40533 13.0599C5.6804 12.9464 5.12978 12.5148 4.79775 12.0278C4.24713 11.2226 3.86806 9.73401 4.34121 8.59957C4.37718 8.51103 4.56533 8.33394 4.593 8.19836C4.64834 7.92721 4.49062 7.57027 4.48232 7.28251C4.43252 5.81051 4.73134 4.54049 5.72467 4.09501C6.12588 2.4902 7.56744 1.95895 8.92601 1.16207C9.43235 0.863244 9.99404 0.675093 10.5696 0.46204C12.642 -0.301632 15.8212 -0.157752 17.5422 1.1427C18.2699 1.69609 19.4376 2.8582 19.8554 3.70211C20.9566 5.92949 20.8791 9.64823 20.1099 12.3571C20.0048 12.7195 19.8554 13.2563 19.6451 13.6907C19.4984 13.9951 19.0447 14.6066 19.1 14.875C19.1581 15.1516 20.1348 15.896 20.3479 16.1007C20.727 16.4659 21.4436 16.9502 21.5017 17.4095C21.5653 17.8992 21.2859 18.5688 21.1448 19.0419C20.6799 20.6246 20.2206 22.0828 19.6838 23.4912ZM17.0552 1.74589C15.6441 0.949018 13.2562 0.351363 11.7566 1.1012C10.5474 1.70439 8.9094 2.70325 8.35048 3.96774C8.87067 5.18795 8.19554 6.30855 8.15403 7.54814C8.1319 8.20667 8.46393 8.78495 8.4916 9.50159C8.31452 9.79488 7.76666 9.83362 7.39313 9.81148C7.26585 9.17786 7.0445 8.46122 6.38873 8.38928C5.46458 8.28967 4.78668 9.05334 4.74518 9.85299C4.69537 10.7937 5.46735 12.3543 6.56305 12.2464C6.98639 12.2049 7.09153 11.7815 7.55084 11.7843C7.79987 12.2823 7.16624 12.4401 7.09983 12.7942C7.08323 12.8855 7.15241 13.248 7.19114 13.4168C7.39036 14.2386 7.83584 15.3038 8.27024 15.9292C8.82363 16.7233 9.9138 16.8422 11.0842 16.9197C11.2945 16.4687 12.0637 16.5047 12.5673 16.6237C11.9641 16.3857 11.4052 15.8074 10.9431 15.2955C10.4091 14.7089 9.86953 14.0808 9.84186 13.3116C10.849 14.7089 11.6791 15.9264 13.5108 16.5406C14.8943 17.0055 16.5129 16.3276 17.5782 15.5805C18.0209 15.2706 18.281 14.7753 18.5964 14.3243C19.7724 12.6365 20.3174 10.2238 20.1985 7.8857C20.1487 6.92281 20.1514 5.96269 19.8277 5.31246C19.4901 4.63456 18.3474 4.02584 17.6778 4.6401C17.5533 3.98157 18.2339 3.57206 19.0336 3.81002C18.4664 3.08509 17.8659 2.20244 17.0552 1.74589ZM9.98297 1.38343C8.62441 1.76803 6.88125 2.75582 6.32509 3.97604C6.75673 3.9124 7.05833 3.69658 7.48444 3.66891C7.64492 3.65784 7.8552 3.73808 8.04059 3.69104C8.40859 3.59973 8.72125 2.77242 9.00071 2.46253C9.27187 2.16093 9.59837 2.03365 9.82249 1.75973C9.96637 1.69055 10.1794 1.69609 10.185 1.48027C10.1241 1.4111 10.0577 1.36129 9.98297 1.38343ZM5.6887 5.21562C5.08828 5.87691 5.21556 7.11373 5.2875 7.99361C6.37213 7.31018 7.8137 8.04895 7.79987 9.20829C8.31728 9.19446 7.99355 8.56083 7.89948 8.15409C7.59235 6.82044 8.41689 5.37333 7.93545 4.15589C7.00576 4.22506 6.24209 4.60689 5.6887 5.21562ZM17.7248 16.3857C18.9838 15.7742 19.2134 18.6684 18.7182 19.6009C18.7956 19.8776 19.0585 19.9855 19.1636 20.2373C18.4608 21.4962 17.6806 22.6722 16.9639 23.9173C17.4979 23.5852 18.2589 23.8564 18.8869 23.6101C19.1166 23.5188 19.2826 22.9931 19.4569 22.5725C19.9356 21.416 20.4364 19.9578 20.6605 18.8538C20.7104 18.602 20.8487 18.0542 20.8183 17.83C20.7629 17.4288 20.2206 17.1328 19.9439 16.8837C19.4348 16.4244 19.1138 16.0232 18.5826 15.5971C18.364 15.9153 17.9019 16.1256 17.7248 16.3857ZM8.56907 17.3846C8.44456 17.296 7.60895 16.2086 7.4955 16.2557C5.98476 16.8533 4.57086 17.8826 3.30638 18.8566C4.50999 21.4409 4.99697 24.6062 5.08274 27.6582C6.46067 28.3028 7.67535 29.2325 9.54856 29.3294C9.33274 27.7965 9.13353 26.4296 9.01178 24.9853C8.5414 24.7889 7.86627 24.9936 7.42633 24.9244C7.42356 24.3932 8.09869 24.692 8.15403 24.3351C8.19554 24.0667 7.78327 24.0445 7.91608 23.6212C8.26194 23.7457 8.44179 24.0224 8.80703 24.1276C9.14183 23.3943 8.80426 22.0966 8.8513 21.4824C8.8596 21.3662 8.9094 20.8432 9.16673 20.9345C9.39638 21.0175 9.15289 22.3235 9.1778 22.9046C9.19993 23.4386 9.11416 23.956 9.32998 24.2908C11.1395 24.0445 12.9768 23.8868 14.9358 23.8315C14.5041 23.6461 13.995 23.4718 13.4333 23.1564C13.129 22.9848 12.1716 22.6279 12.0831 22.3401C11.942 21.878 12.4483 21.6346 12.5368 21.2417C11.6238 21.7397 11.4439 20.7657 11.2309 20.074C11.0344 19.4487 10.9237 18.9811 10.8739 18.6186C10.0881 18.2451 9.24697 17.866 8.56907 17.3846ZM18.5245 18.5356C18.5023 18.0929 18.3861 17.1798 18.1122 17.0193C17.5367 16.6845 16.5129 17.6972 16.0813 17.8522C16.1283 17.9877 16.2058 18.0957 16.2113 18.27C16.4686 18.2063 16.7785 18.2506 17.0027 18.3613C16.7453 18.389 16.4604 18.389 16.2916 18.5107C16.2279 18.6905 16.3054 18.9368 16.2667 19.1858C16.8754 19.3574 17.5727 19.4487 18.3446 19.4708C18.4913 19.2744 18.5411 18.9036 18.5245 18.5356ZM14.078 17.1853C14.078 17.2241 14.0255 17.2102 14.0172 17.2407C14.5235 17.6364 14.8998 17.7166 15.586 17.6834C15.8959 17.4593 16.1726 17.1936 16.4963 16.9834C15.752 17.0525 14.814 17.5146 14.078 17.1853ZM9.23037 16.9972C8.83746 17.3956 10.3316 17.9407 10.8103 17.9711C10.8075 17.7194 10.9542 17.4814 10.9237 17.2988C10.3593 17.1992 9.61497 17.2656 9.23037 16.9972ZM13.7571 17.8217C13.2839 17.5616 12.57 17.2794 11.9586 17.1632C11.2004 17.0193 11.2696 18.198 11.3028 18.9008C11.3277 19.457 11.6182 20.0463 11.7455 20.4171C11.8036 20.5914 11.8174 20.774 11.9669 20.8072C12.2297 20.8681 13.0902 20.525 13.3365 20.3894C13.8567 20.1072 14.2579 19.6562 14.7006 19.3546C14.7061 19.208 14.7117 19.0613 14.7172 18.9147C14.4516 18.7819 14.1472 18.6878 13.7571 18.6712C14.0227 18.5384 14.4101 18.5411 14.6508 18.3834C14.6535 18.3253 14.6563 18.2672 14.6591 18.2063C14.2164 18.1759 14.0476 17.9794 13.7571 17.8217ZM14.9773 18.2202C14.9468 18.555 15.0243 18.6656 15.0907 19.0475C16.192 19.3906 16.001 17.5395 14.9773 18.2202ZM15.8738 19.4016C15.5915 19.3712 15.3508 19.7254 14.9856 19.5732C14.9026 19.6645 14.8251 19.7669 14.7393 19.8582C15.55 20.8349 15.918 22.2211 16.5434 23.3694C16.8809 22.2654 16.8394 21.059 16.9141 19.8554C16.452 19.8831 16.1975 19.4376 15.8738 19.4016ZM17.2655 19.8969C17.2185 21.0701 17.0829 22.6057 16.773 23.5244C17.5173 22.5753 18.1205 21.4713 18.7458 20.395C18.4774 19.9661 17.9185 19.5898 17.2655 19.8969ZM16.037 23.5244C15.539 22.3512 15.0852 21.1393 14.3409 20.193C13.6187 20.6772 12.8274 21.131 12.6226 22.0081C13.6575 22.5947 14.8611 23.1702 16.037 23.5244ZM22.6334 27.8408C23.3445 27.6692 23.7899 26.8004 23.5907 25.9067C23.4579 25.3063 23.22 24.1774 22.9654 23.7955C22.7772 23.5133 22.2681 23.1398 21.8642 23.3999C21.2029 23.8232 20.0408 23.9449 19.5593 24.4568C19.8 25.262 19.8747 26.3632 19.9743 27.3842C20.7989 27.4368 21.8144 27.1573 22.5006 27.4534C22.0219 27.6084 21.3993 27.6111 20.987 27.8352C21.3246 27.9985 22.1159 27.9625 22.6334 27.8408ZM18.97 24.4928C18.7431 24.4402 18.4802 24.4928 18.2644 24.4956C18.3668 25.5083 18.613 26.6261 18.6988 27.6886C19.0391 27.6997 19.219 27.5392 19.4984 27.4838C19.515 26.5486 19.421 25.2648 18.97 24.4928ZM16.5489 24.692C16.5323 25.9344 16.6042 27.1601 16.6983 28.4025C17.1742 28.3305 17.5007 28.2835 17.9434 28.1866C17.7995 26.9886 17.8189 25.6411 17.5229 24.5841C17.1853 24.5869 16.8865 24.5786 16.5489 24.692ZM9.33551 24.9438C9.65094 27.8352 10.1047 30.2674 10.9431 32.8295C12.7969 33.3912 15.0354 33.441 16.6734 32.9347C16.3718 31.4876 16.5046 29.7306 16.3275 28.1866C16.1947 27.0273 16.2611 25.8597 16.0813 24.6782C14.0946 24.2604 11.2862 24.5786 9.33551 24.9438ZM16.7647 29.0222C16.7343 29.7416 16.8367 30.8899 16.8699 31.6425C17.3458 31.6425 17.5505 31.5374 17.9075 31.4184C17.949 30.533 17.6252 29.714 17.5339 28.9033C17.3458 28.8562 16.9999 29.0389 16.7647 29.0222Z" fill="#221E1F"/>
<path d="M12.3322 12.5673C12.3931 12.4871 12.7196 12.3681 13.1816 12.5867C13.1816 12.5867 12.6366 12.678 12.6808 13.5883L12.4539 13.5441C12.4539 13.5441 12.2187 12.7195 12.3322 12.5673Z" fill="#F5E2CC"/>
<path d="M16.3137 20.3812C16.3137 20.5195 16.203 20.6302 16.0647 20.6302C15.9264 20.6302 15.8157 20.5195 15.8157 20.3812C15.8157 20.2428 15.9264 20.1321 16.0647 20.1321C16.203 20.1294 16.3137 20.2428 16.3137 20.3812Z" fill="#1D1919"/>
<path d="M16.5657 21.5405C16.5657 21.6788 16.455 21.7895 16.3167 21.7895C16.1783 21.7895 16.0676 21.6788 16.0676 21.5405C16.0676 21.4021 16.1783 21.2914 16.3167 21.2914C16.4522 21.2887 16.5657 21.3993 16.5657 21.5405Z" fill="#1D1919"/>
</g>
<defs>
<clipPath id="clip0_0_36">
<rect width="24.5841" height="34" fill="white"/>
</clipPath>
</defs>
</svg>
