<svg width="27" height="30" viewBox="0 0 27 30" fill="none" xmlns="http://www.w3.org/2000/svg">
<g clip-path="url(#clip0_20_783)">
<path fill-rule="evenodd" clip-rule="evenodd" d="M26.0118 0L23.6423 26.5471L12.9903 29.5L2.36711 26.5519L0 0H26.0118Z" fill="#E44D26"/>
<path fill-rule="evenodd" clip-rule="evenodd" d="M13.0047 27.2434L21.6137 24.857L23.6375 2.17029H13.0047V27.2434Z" fill="#F16529"/>
<path fill-rule="evenodd" clip-rule="evenodd" d="M8.40011 8.68335H13.0071V5.42798H4.83984L4.91667 6.30184L5.71611 15.2757H13.0023V12.0179H8.69779L8.40011 8.68335ZM9.13232 16.9034H5.86495L6.32109 22.0169L12.9927 23.8679L13.0071 23.8631V20.4757L12.9927 20.4805L9.36519 19.501L9.13232 16.9034Z" fill="#EBEBEB"/>
<path fill-rule="evenodd" clip-rule="evenodd" d="M12.9951 15.2758H17.0043L16.6274 19.4987L12.9951 20.4782V23.8656L19.6715 22.0146L19.7195 21.4648L20.4853 12.8919L20.5645 12.018H12.9951V15.2758ZM12.9951 8.67623V8.68343H20.8598L20.9247 7.95121L21.0735 6.29952L21.1503 5.42566H12.9951V8.67623Z" fill="white"/>
</g>
<defs>
<clipPath id="clip0_20_783">
<rect width="26.0118" height="29.5" fill="white"/>
</clipPath>
</defs>
</svg>
