<svg width="30" height="30" viewBox="0 0 30 30" fill="none" xmlns="http://www.w3.org/2000/svg">
<g clip-path="url(#clip0_20_863)">
<path d="M0 0H24.78C26.0318 0 27.2324 0.497284 28.1175 1.38246C29.0027 2.26763 29.5 3.46818 29.5 4.72V24.78C29.5 26.0318 29.0027 27.2324 28.1175 28.1175C27.2324 29.0027 26.0318 29.5 24.78 29.5H4.72C3.46818 29.5 2.26763 29.0027 1.38246 28.1175C0.497284 27.2324 0 26.0318 0 24.78L0 0Z" fill="#663399"/>
<path d="M10.564 27.14C8.66917 27.1382 7.50008 26.0712 7.5225 24.1077V19.1402C7.5225 18.1448 7.81396 17.3879 8.39688 16.8698C9.44384 15.8612 11.8729 15.7999 12.8983 16.8852C13.5302 17.4424 13.7685 18.5808 13.7119 19.6431H11.5372C11.5537 19.2257 11.5316 18.5935 11.2861 18.3555C10.9672 17.9239 10.125 17.9746 9.90227 18.4239C9.76539 18.6676 9.69695 19.0283 9.69695 19.5057V23.818C9.69695 24.7221 10.0111 25.1794 10.6398 25.1894C10.9336 25.1894 11.1569 25.0826 11.3088 24.8694C11.5209 24.6162 11.554 24.0557 11.5369 23.6504H13.7116C13.8603 25.7175 12.6402 27.1656 10.5637 27.14H10.564ZM17.4681 27.14C15.3686 27.1689 14.4293 25.675 14.4875 23.6504H16.5404C16.4834 24.533 16.7867 25.3369 17.5136 25.2809C17.8378 25.2809 18.0661 25.1794 18.198 24.9761C18.4487 24.6047 18.4956 23.5321 18.1372 23.117C17.8867 22.7173 16.9858 22.3645 16.51 22.1267C15.8306 21.8016 15.3415 21.4158 15.0423 20.9686C14.3677 19.9762 14.4302 17.7979 15.3769 16.9153C16.2967 15.8261 18.6989 15.776 19.6196 16.8925C20.1874 17.4681 20.4355 18.6006 20.3875 19.6428H18.4104C18.4272 19.2145 18.3868 18.5233 18.2204 18.2714C18.1039 18.0581 17.8832 17.9513 17.559 17.9513C16.9811 17.9513 16.6923 18.2967 16.6923 18.9873C16.6985 19.7207 16.9843 20.0216 17.6504 20.3281C18.513 20.6632 19.6098 21.2355 20.0075 21.9282C21.1934 24.0386 20.3798 27.2624 17.4678 27.1394L17.4681 27.14ZM24.0986 27.14C21.999 27.1689 21.0598 25.675 21.1179 23.6504H23.1708C23.1138 24.533 23.4171 25.3369 24.144 25.2809C24.4682 25.2809 24.6965 25.1794 24.8284 24.9761C25.0791 24.6047 25.126 23.5321 24.7676 23.117C24.5172 22.7173 23.6162 22.3645 23.1404 22.1267C22.461 21.8016 21.9719 21.4158 21.6728 20.9686C20.9981 19.9762 21.0606 17.7979 22.0073 16.9153C22.9271 15.8261 25.3293 15.776 26.25 16.8925C26.8179 17.4681 27.066 18.6006 27.0179 19.6428H25.0408C25.0576 19.2145 25.0172 18.5233 24.8508 18.2714C24.7343 18.0581 24.5136 17.9513 24.1894 17.9513C23.6115 17.9513 23.3227 18.2967 23.3227 18.9873C23.3289 19.7207 23.6148 20.0216 24.2809 20.3281C25.1434 20.6632 26.2402 21.2355 26.6379 21.9282C27.8238 24.0386 27.0102 27.2624 24.0983 27.1394L24.0986 27.14Z" fill="white"/>
</g>
<defs>
<clipPath id="clip0_20_863">
<rect width="29.5" height="29.5" fill="white"/>
</clipPath>
</defs>
</svg>
