<svg width="48" height="48" viewBox="0 0 48 48" fill="none" xmlns="http://www.w3.org/2000/svg">
<path d="M3 18.2C3 12.8795 3 10.2193 4.03544 8.18709C4.94624 6.39955 6.39955 4.94624 8.18709 4.03544C10.2193 3 12.8795 3 18.2 3H29.8C35.1205 3 37.7807 3 39.8129 4.03544C41.6004 4.94624 43.0538 6.39955 43.9646 8.18709C45 10.2193 45 12.8795 45 18.2V29.8C45 35.1205 45 37.7807 43.9646 39.8129C43.0538 41.6004 41.6004 43.0538 39.8129 43.9646C37.7807 45 35.1205 45 29.8 45H18.2C12.8795 45 10.2193 45 8.18709 43.9646C6.39955 43.0538 4.94624 41.6004 4.03544 39.8129C3 37.7807 3 35.1205 3 29.8V18.2Z" fill="#001E36"/>
<path d="M25.057 33.9301H13.9561C13.7682 33.9301 13.6742 33.8242 13.6743 33.6123V15.2624C13.6535 15.1131 13.7824 14.9809 13.9279 15.0023H17.3653C17.4785 14.9859 17.5782 15.0903 17.5625 15.2046V30.2891H25.6487C25.8178 30.2891 25.8835 30.3758 25.846 30.5491L25.3388 33.6701C25.3344 33.8272 25.2055 33.9285 25.057 33.9301Z" fill="#31A8FF"/>
<path d="M27.8772 19.5479H30.9484C31.1177 19.5494 31.2698 19.6694 31.3146 19.8369C31.5397 20.3494 31.5674 20.9675 31.5682 21.5208C32.0949 20.8919 32.73 20.3678 33.4418 19.9749C34.2052 19.5318 35.0707 19.3072 35.9478 19.3247C36.0933 19.3033 36.2222 19.4355 36.2014 19.5847V23.0813C36.2014 23.2163 36.1071 23.2836 35.9197 23.2836C34.6198 23.1916 32.5959 23.5066 31.6514 24.5551V33.6468C31.6514 33.8202 31.5763 33.9069 31.426 33.9068H28.1309C27.969 33.9307 27.8262 33.7813 27.849 33.6179V23.746C27.849 22.4231 27.877 21.0605 27.68 19.7502C27.6497 19.6296 27.7623 19.5175 27.8772 19.5479Z" fill="#31A8FF"/>
</svg>
