<svg width="34" height="34" viewBox="0 0 34 34" fill="none" xmlns="http://www.w3.org/2000/svg">
<path d="M28.2681 27.2719L22.1667 17.0011L28.2681 6.72586L31.2134 16.9989L28.267 27.2696L28.2681 27.2719ZM14.6709 26.2856L6.99817 18.671H19.1954L25.2945 28.9429L14.6697 26.2879L14.6709 26.2856ZM14.6709 7.71439L25.2945 5.05942L19.1965 15.3313H6.99703L14.6709 7.71439ZM34 13.505L30.2793 0L16.3906 3.6197L14.3364 7.14757L10.1645 7.11696L0 17.0011L10.1656 26.8864L14.3353 26.8536L16.3952 30.3814L30.2782 34L34 20.5007L31.8868 17.0011L34 13.505Z" fill="black"/>
</svg>
