<svg width="48" height="48" viewBox="0 0 48 48" fill="none" xmlns="http://www.w3.org/2000/svg">
<path d="M3 18.2C3 12.8795 3 10.2193 4.03544 8.18709C4.94624 6.39955 6.39955 4.94624 8.18709 4.03544C10.2193 3 12.8795 3 18.2 3H29.8C35.1205 3 37.7807 3 39.8129 4.03544C41.6004 4.94624 43.0538 6.39955 43.9646 8.18709C45 10.2193 45 12.8795 45 18.2V29.8C45 35.1205 45 37.7807 43.9646 39.8129C43.0538 41.6004 41.6004 43.0538 39.8129 43.9646C37.7807 45 35.1205 45 29.8 45H18.2C12.8795 45 10.2193 45 8.18709 43.9646C6.39955 43.0538 4.94624 41.6004 4.03544 39.8129C3 37.7807 3 35.1205 3 29.8V18.2Z" fill="#00005B"/>
<path d="M20.684 29.3458H14.1756L12.8514 33.5729C12.8146 33.7296 12.6703 33.8406 12.5133 33.8329H9.21681C9.02882 33.8329 8.96308 33.727 9.01959 33.5151L14.6545 16.9389C14.7109 16.7656 14.7672 16.5961 14.8236 16.3744C14.8973 15.9888 14.9351 15.597 14.9363 15.2041C14.9202 15.088 15.0204 14.9852 15.1336 15.0018H19.6133C19.7446 15.0018 19.8197 15.0499 19.8387 15.1463L26.2345 33.544C26.2908 33.7368 26.2345 33.8331 26.0654 33.8329H22.4026C22.2742 33.8475 22.1515 33.7595 22.1209 33.6307L20.684 29.3458ZM15.1899 25.7816H19.6415C18.9101 23.2823 18.0847 20.8159 17.4157 18.2971C16.6576 20.9099 15.9576 23.333 15.1899 25.7816Z" fill="#9999FF"/>
<path d="M30.9912 27.7135C31.2502 29.8599 33.0526 30.8832 35.0484 30.8396C36.1738 30.8175 37.3766 30.6428 38.4281 30.2172C38.5219 30.1405 38.569 30.1883 38.569 30.3617V33.107C38.5779 33.2498 38.5182 33.3774 38.3999 33.4537C37.093 34.0475 35.5925 34.2265 34.175 34.2038C29.9483 34.2038 27.0455 31.2257 27.0467 26.8927C27.0357 22.7866 29.6995 19.3225 33.8369 19.3225C37.344 19.2316 39.772 22.0396 39.7818 25.5346C39.7818 26.1712 39.7463 26.8099 39.6691 27.4418C39.6542 27.572 39.5433 27.673 39.4155 27.673C36.6145 27.673 33.7999 27.7135 30.9912 27.7135ZM30.9912 25.0811C32.5522 25.0811 34.1223 25.1362 35.6823 25.0666C35.9168 25.0426 36.0909 24.9982 36.0909 24.7543C36.0584 23.4586 34.9649 22.393 33.6961 22.4425C32.1629 22.3475 31.1818 23.6416 30.9912 25.0811Z" fill="#9999FF"/>
</svg>
