<svg width="48" height="48" viewBox="0 0 48 48" fill="none" xmlns="http://www.w3.org/2000/svg">
<g clip-path="url(#clip0_1484_7095)">
<path d="M10.4375 2.54297H37.5625C41.6701 2.54297 45 5.95825 45 10.1712V36.9148C45 41.1277 41.6701 44.543 37.5625 44.543H10.4375C6.3299 44.543 3 41.1277 3 36.9148V10.1712C3 5.95825 6.3299 2.54297 10.4375 2.54297Z" fill="#1E3101"/>
<path d="M12.0844 31.9958V13.5304C12.0844 13.3957 12.1408 13.3281 12.2535 13.3281C12.5538 13.3281 12.9106 13.3232 13.3241 13.3135C13.7369 13.304 14.1832 13.2945 14.6623 13.2846C15.1413 13.2751 15.6485 13.2654 16.1838 13.2557C16.7191 13.2462 17.2497 13.2414 17.7758 13.2412C19.2031 13.2412 20.4051 13.4243 21.3822 13.7903C22.2635 14.0959 23.0671 14.5996 23.7347 15.264C24.3006 15.84 24.738 16.5352 25.0167 17.3014C25.2803 18.047 25.4138 18.8346 25.4112 19.6275C25.4112 21.169 25.0636 22.4405 24.3687 23.442C23.6691 24.4477 22.6857 25.2091 21.5512 25.6239C20.2867 26.0909 18.9505 26.321 17.6067 26.303C17.1934 26.303 16.9023 26.2982 16.7333 26.2885C16.5642 26.279 16.3107 26.2741 15.9726 26.274V31.9668C15.9901 32.0924 15.905 32.2089 15.7825 32.2268C15.7615 32.2299 15.7402 32.2299 15.7192 32.2268H12.2816C12.15 32.227 12.0844 32.1504 12.0844 31.9958ZM15.9726 16.7958V22.7775C16.2165 22.7969 16.4419 22.8066 16.6488 22.8064H17.5785C18.2605 22.8167 18.9399 22.7192 19.593 22.5175C20.1512 22.3475 20.65 22.0163 21.0299 21.5639C21.3962 21.1209 21.5794 20.5045 21.5794 19.7144C21.5943 19.1555 21.4525 18.6038 21.1709 18.1251C20.8748 17.6622 20.447 17.3039 19.9454 17.0993C19.2906 16.8381 18.5909 16.7154 17.8886 16.7382C17.4378 16.7382 17.0387 16.743 16.6911 16.7525C16.3432 16.7624 16.1038 16.7769 15.9726 16.7958Z" fill="#99E83F"/>
<path d="M35.864 29.3662V31.7358C35.864 31.9479 35.7889 32.0732 35.6386 32.1114C35.2688 32.2303 34.8924 32.3268 34.5116 32.4004C34.0653 32.4819 33.6124 32.5207 33.1592 32.516C31.9378 32.516 30.9801 32.1884 30.2853 31.5335C29.5902 30.8787 29.2427 29.8289 29.2428 28.3837V21.2171H27.5805C27.43 21.2171 27.3551 21.1304 27.3551 20.957V18.0962C27.3551 17.9422 27.4396 17.8652 27.6087 17.865H29.271C29.2896 17.5376 29.313 17.1571 29.3415 16.7236C29.3697 16.2902 29.4072 15.8567 29.4542 15.4233C29.501 14.9898 29.5431 14.6382 29.5809 14.3686C29.5995 14.3108 29.6282 14.2569 29.6655 14.2097C29.7019 14.1627 29.7507 14.1275 29.8063 14.1087L33.1592 13.6752C33.2327 13.6628 33.2803 13.6628 33.314 13.6831C33.3513 13.7025 33.3564 13.7524 33.3564 13.8486C33.3186 14.2919 33.2904 14.8941 33.2719 15.6546C33.253 16.4158 33.2341 17.1528 33.2155 17.8652H35.8358C35.9485 17.8652 36.0048 17.9422 36.0048 18.0964V21.015C36.0192 21.1105 35.9567 21.2002 35.864 21.2173H33.1873V27.4013C33.1873 28.0565 33.2953 28.5237 33.5114 28.8028C33.727 29.0822 34.1262 29.2221 34.7088 29.2219C34.8778 29.2219 35.0371 29.2174 35.1878 29.2073C35.3379 29.1978 35.4882 29.1835 35.6386 29.1641C35.6897 29.1445 35.7467 29.1497 35.7934 29.1784C35.8402 29.2073 35.864 29.27 35.864 29.3662Z" fill="#99E83F"/>
</g>
<defs>
<clipPath id="clip0_1484_7095">
<rect width="42" height="42" fill="white" transform="translate(3 2.54297)"/>
</clipPath>
</defs>
</svg>
