<svg width="35" height="34" viewBox="0 0 35 34" fill="none" xmlns="http://www.w3.org/2000/svg">
<g clip-path="url(#clip0_0_11)">
<path d="M0 12.0458C0 7.50124 0 5.22894 0.862865 3.49314C1.62186 1.96628 2.83296 0.724909 4.32258 -0.0530633C6.01604 -0.9375 8.23292 -0.9375 12.6667 -0.9375H22.3333C26.7671 -0.9375 28.984 -0.9375 30.6774 -0.0530633C32.167 0.724909 33.3781 1.96628 34.1371 3.49314C35 5.22894 35 7.50124 35 12.0458V21.9542C35 26.4988 35 28.7711 34.1371 30.5069C33.3781 32.0337 32.167 33.2751 30.6774 34.0531C28.984 34.9375 26.7671 34.9375 22.3333 34.9375H12.6667C8.23292 34.9375 6.01604 34.9375 4.32258 34.0531C2.83296 33.2751 1.62186 32.0337 0.862865 30.5069C0 28.7711 0 26.4988 0 21.9542V12.0458Z" fill="#330000"/>
<path d="M17.0279 20.821H12.2822L11.3166 23.8095C11.2898 23.9205 11.1846 23.9992 11.0701 23.9937H8.66639C8.52932 23.9937 8.48138 23.9187 8.52258 23.7686L12.6314 11.9784C12.6725 11.8556 12.7136 11.7158 12.7547 11.5588C12.8085 11.2857 12.836 11.0081 12.8369 10.7298C12.8251 10.6476 12.8995 10.575 12.9807 10.5865H16.2472C16.3429 10.5865 16.3977 10.6206 16.4116 10.6889L21.0752 23.789C21.1162 23.9256 21.0751 23.9938 20.9519 23.9937H18.2811C18.1874 24.0041 18.098 23.9417 18.0756 23.8505L17.0279 20.821ZM13.0218 18.2419H16.2678C15.7345 16.4716 15.1326 14.7246 14.6448 12.9405C14.1185 14.7276 13.5443 16.5075 13.0218 18.2419Z" fill="#FF9A00"/>
<path d="M23.8484 12.7562C23.6388 12.7646 23.4299 12.7288 23.2351 12.6512C23.0404 12.5736 22.8644 12.4559 22.7184 12.3059C22.5729 12.1493 22.4599 11.9656 22.3858 11.7654C22.3118 11.5652 22.2782 11.3523 22.287 11.1391C22.2795 10.928 22.3168 10.7177 22.3965 10.522C22.4761 10.3262 22.5963 10.1494 22.7492 10.0031C22.9006 9.85829 23.0794 9.74484 23.2751 9.6693C23.4708 9.59376 23.6796 9.55764 23.8894 9.56302C24.3825 9.56302 24.7694 9.70972 25.0502 10.0031C25.1919 10.1556 25.3021 10.3344 25.3743 10.5293C25.4466 10.7243 25.4795 10.9315 25.4713 11.1391C25.4799 11.3532 25.4452 11.5668 25.3694 11.7672C25.2935 11.9676 25.178 12.1508 25.0296 12.3059C24.8746 12.4581 24.6896 12.5767 24.4863 12.6542C24.283 12.7317 24.0658 12.7665 23.8484 12.7562ZM22.4308 23.789V14.0048C22.4308 13.882 22.4853 13.8206 22.5951 13.8206H25.1221C25.2316 13.8206 25.2864 13.882 25.2865 14.0048V23.789C25.2865 23.9255 25.2317 23.9938 25.1221 23.9937H22.6157C22.4924 23.9937 22.4308 23.9254 22.4308 23.789Z" fill="#FF9A00"/>
</g>
<defs>
<clipPath id="clip0_0_11">
<rect width="35" height="34" fill="white"/>
</clipPath>
</defs>
</svg>
