<svg width="34" height="34" viewBox="0 0 34 34" fill="none" xmlns="http://www.w3.org/2000/svg">
<g clip-path="url(#clip0_0_30)">
<mask id="mask0_0_30" style="mask-type:luminance" maskUnits="userSpaceOnUse" x="0" y="0" width="34" height="34">
<path d="M0 0.041748H33.9582V34H0V0.041748Z" fill="white"/>
</mask>
<g mask="url(#mask0_0_30)">
<path d="M33.3185 15.5088L18.4916 0.682949C18.2884 0.479711 18.0473 0.318486 17.7818 0.208486C17.5164 0.0984873 17.2319 0.0418701 16.9446 0.0418701C16.6572 0.0418701 16.3727 0.0984873 16.1073 0.208486C15.8418 0.318486 15.6007 0.479711 15.3976 0.682949L12.3198 3.76217L16.2246 7.66699C16.6837 7.51108 17.1773 7.48674 17.6495 7.59672C18.1217 7.70671 18.5537 7.94662 18.8966 8.28934C19.2414 8.63454 19.4822 9.06983 19.5913 9.54542C19.7003 10.021 19.6734 10.5177 19.5134 10.9787L23.2782 14.7423C23.7393 14.5822 24.2362 14.5552 24.7119 14.6645C25.1876 14.7738 25.6229 15.0149 25.9679 15.3602C26.2095 15.6018 26.4012 15.8887 26.532 16.2044C26.6628 16.52 26.7301 16.8584 26.7301 17.2001C26.7301 17.5418 26.6628 17.8802 26.532 18.1959C26.4012 18.5116 26.2095 18.7984 25.9679 19.04C25.4793 19.528 24.817 19.8021 24.1265 19.8021C23.436 19.8021 22.7737 19.528 22.2851 19.04C21.9222 18.6765 21.675 18.2137 21.5745 17.71C21.474 17.2063 21.5248 16.6841 21.7204 16.2091L18.2096 12.6994V21.9374C18.5801 22.1204 18.9018 22.3891 19.1478 22.7212C19.3939 23.0534 19.5572 23.4393 19.6244 23.8471C19.6916 24.2549 19.6607 24.6729 19.5342 25.0664C19.4077 25.4598 19.1892 25.8175 18.897 26.1098C18.6554 26.3514 18.3685 26.5431 18.0528 26.6739C17.7372 26.8047 17.3988 26.872 17.0571 26.872C16.7154 26.872 16.377 26.8047 16.0613 26.6739C15.7456 26.5431 15.4588 26.3514 15.2172 26.1098C14.9755 25.8682 14.7838 25.5813 14.653 25.2656C14.5221 24.9499 14.4548 24.6115 14.4548 24.2697C14.4548 23.928 14.5221 23.5896 14.653 23.2738C14.7838 22.9581 14.9755 22.6713 15.2172 22.4296C15.4607 22.1857 15.7501 21.9924 16.0687 21.8609V12.5379C15.7514 12.4072 15.463 12.2151 15.2202 11.9726C14.9773 11.7301 14.7848 11.4421 14.6536 11.125C14.5224 10.8079 14.4552 10.468 14.4558 10.1248C14.4563 9.78163 14.5247 9.44196 14.6569 9.1253L10.8068 5.27443L0.639336 15.4393C0.22962 15.8498 -0.000488281 16.4061 -0.000488281 16.9861C-0.000488281 17.5661 0.22962 18.1224 0.639336 18.5329L15.467 33.3606C15.8775 33.7702 16.4338 34.0003 17.0137 34.0003C17.5936 34.0003 18.1498 33.7702 18.5603 33.3606L33.3185 18.6024C33.7282 18.1919 33.9583 17.6356 33.9583 17.0556C33.9583 16.4756 33.7282 15.9193 33.3185 15.5088Z" fill="#F03C2E"/>
</g>
</g>
<defs>
<clipPath id="clip0_0_30">
<rect width="34" height="34" fill="white"/>
</clipPath>
</defs>
</svg>
