<svg width="34" height="34" viewBox="0 0 34 34" fill="none" xmlns="http://www.w3.org/2000/svg">
<path d="M17 0C7.60687 0 0 7.60856 0 17C0 26.3914 7.60687 34 17 34C26.3867 34 34 26.3914 34 17C34 7.60856 26.3878 0 16.9946 0H17ZM17 0.746938C21.3365 0.746938 25.4212 2.44056 28.4912 5.50588C31.5547 8.56056 33.2628 12.6947 33.2521 17C33.2521 21.3382 31.5612 25.4224 28.4912 28.4941C25.4609 31.5435 21.3194 33.2584 17 33.2531C12.6806 33.2584 8.53911 31.5435 5.50879 28.4941C2.44526 25.4394 0.731863 21.3053 0.742578 17C0.742578 12.6618 2.43883 8.57756 5.50344 5.50588C8.53375 2.45119 12.6806 0.73525 17 0.746938ZM16.146 6.72881C13.3782 7.46513 10.8161 8.87613 7.40113 12.7606C3.98613 16.6451 4.63334 19.8549 4.63334 19.8549C4.63334 19.8549 5.5763 17.6471 7.84261 15.3223C8.91951 14.2216 9.71781 13.8507 10.2707 13.8507C10.7615 13.8231 11.1751 14.2163 11.1751 14.7029V22.5888C11.1751 23.3686 10.6672 23.5408 10.1989 23.5291C9.80246 23.5238 9.43385 23.3856 9.43385 23.3856C11.7612 26.7389 17.3311 27.2096 17.3311 27.2096L19.7753 24.6192L19.831 24.6691L22.0695 26.5614C26.166 24.1485 28.1419 19.6775 28.1419 19.6775C26.3117 21.5921 25.1501 22.0405 24.4579 22.0405C23.8439 22.0352 23.6039 21.6803 23.6039 21.6803C23.5707 21.5146 23.515 19.1122 23.4925 16.711C23.47 14.2258 23.4925 11.7364 23.6157 11.73C24.324 10.4125 26.5796 7.75625 26.5796 7.75625C22.3663 8.58075 20.0721 11.3199 20.0721 11.3199C19.3917 10.7886 18.0072 10.8768 18.0072 10.8768C18.6545 11.2306 19.3017 12.2602 19.3017 13.1123V21.5018C19.3017 21.5018 17.8894 22.7354 16.8018 22.7354C16.1546 22.7354 15.7581 22.3869 15.5406 22.0989C15.457 21.9884 15.3841 21.8662 15.3284 21.7334V11.3741C15.1773 11.4846 14.993 11.5451 14.8098 11.5515C14.5751 11.5515 14.3351 11.4357 14.1733 11.0978C14.05 10.8428 13.9718 10.4614 13.9718 9.9025C13.9718 7.99319 16.1481 6.72563 16.1481 6.72563L16.146 6.72881Z" fill="black"/>
</svg>
