<svg width="33" height="34" viewBox="0 0 33 34" fill="none" xmlns="http://www.w3.org/2000/svg">
<path d="M16.4535 3.90735C16.3312 3.167 16.4873 2.39959 16.9108 1.60497C17.4116 0.648754 18.0016 0.124035 18.681 0.0160288C19.5609 -0.105014 20.3737 0.460256 21.131 1.68576C21.8326 2.8301 22.1446 3.90735 22.0667 4.89032C22.0552 5.48272 21.3318 5.84615 19.895 5.9672C18.7701 6.0752 17.9573 5.94036 17.4334 5.5498C16.8879 5.15961 16.5649 4.60776 16.4535 3.90735ZM31.9777 33.8667C31.8998 34.0681 31.6219 34.0414 31.1425 33.7856C30.3297 33.3145 29.4277 32.6006 28.4144 31.631C27.2894 30.5541 26.6321 29.7058 26.4541 29.0862C26.4208 28.9381 26.4321 28.7499 26.4987 28.5075L26.7106 27.8206C26.8551 27.1879 26.6656 26.5553 26.1424 25.9218C25.8865 25.6124 25.5412 25.3164 25.1178 25.0333C24.1269 24.4007 22.7013 23.8622 20.8193 23.431C18.8701 22.9868 17.0108 22.731 15.24 22.6773L13.0906 22.8121C12.5227 23.6064 11.9772 24.3467 11.4534 25.0333C11.0081 25.599 10.5741 26.1241 10.1506 26.6088C8.44687 28.4536 6.78779 29.854 5.16168 30.8233C2.94544 32.1295 1.28611 32.5064 0.161316 31.9274C0.0165718 31.8063 -0.0280615 31.6045 0.0165718 31.3215L0.217045 30.5675C0.985465 28.5478 2.24385 26.7031 3.97006 25.0332C4.11481 24.8854 4.27065 24.7506 4.41539 24.6162C5.78523 23.3907 7.63375 22.0982 9.96145 20.7652C11.4869 19.9709 12.7456 19.4458 13.7256 19.19L14.6498 17.6413C15.0172 17.0895 15.4068 16.5644 15.7967 16.0658C16.6319 14.9751 17.4891 13.9656 18.3917 13.0634C18.4694 13.0228 18.4808 12.9692 18.4358 12.9018C17.9795 12.5923 17.2334 12.0129 16.2202 11.1647C15.3511 10.4512 14.672 9.95296 14.1817 9.68336C12.6452 8.84887 11.0748 9.09126 9.46033 10.4107C8.49119 11.1915 7.96787 12.0535 7.91221 12.996L7.85642 14.154C7.91221 14.4769 7.05477 15.0157 5.29527 15.7697C4.97224 15.8908 4.70494 15.9984 4.48222 16.0657C4.0923 16.1599 3.825 16.1737 3.69161 16.0925L3.64697 16.0657L3.52467 15.9715C3.36858 15.5947 4.10371 14.3018 5.71847 12.0803C5.82993 11.9294 5.94251 11.7828 6.05573 11.6384L6.05949 11.6325L6.06319 11.6295C8.98667 7.91146 12.4346 6.47251 16.398 7.32731C17.4892 7.55628 19.2939 8.36402 21.8217 9.73763C22.0996 9.40073 22.5791 8.99705 23.236 8.53903C24.0713 7.96034 24.7614 7.65019 25.285 7.63716C26.4323 7.62344 27.1557 8.14846 27.4566 9.23921C27.6347 9.89937 27.2336 10.8285 26.2429 12.0267C25.2185 13.2924 24.2494 14.0867 23.3362 14.4095C22.189 14.8272 20.9417 14.5848 19.6165 13.7098C19.0266 14.2617 18.3583 15.0563 17.6343 16.0658C17.601 16.1063 17.5675 16.16 17.5342 16.2006L15.8194 18.6782L15.7969 18.853L16.9774 18.7994C17.8237 18.8265 18.6812 19.0011 19.561 19.3378C21.9556 20.2669 23.9599 21.4111 25.5744 22.7715C26.3428 23.431 27.0896 24.1853 27.7908 25.0332C28.5146 25.9218 29.2161 26.9182 29.8731 28.0089C30.4527 28.9789 30.9424 29.9613 31.3542 30.9443C31.9334 32.3181 32.1446 33.2873 31.9777 33.8667ZM23.2025 10.2763C23.4141 10.4781 23.9151 10.5592 24.7282 10.5187C25.63 10.4781 26.2428 10.2629 26.5878 9.84541C26.755 9.64327 26.755 9.44143 26.5656 9.253C26.354 9.02403 25.9644 8.97037 25.4076 9.06428C24.9286 9.15849 24.4162 9.36033 23.8596 9.67048C23.3139 9.97994 23.091 10.1821 23.2025 10.2763ZM11.0526 23.1752L10.7964 23.1351C10.028 23.3238 9.31533 23.539 8.65844 23.7818C7.73424 24.1449 6.87649 24.5623 6.08594 25.0334C5.45117 25.3972 4.86078 25.8013 4.31534 26.2318C2.57778 27.5917 1.77608 28.9117 1.92082 30.1904L2.08801 30.4194C2.54443 30.7832 3.4465 30.5001 4.7828 29.5711C6.59835 28.2924 8.22389 26.7842 9.66061 25.0334C10.1395 24.4409 10.6071 23.8217 11.0526 23.1752Z" fill="black"/>
</svg>
