<svg width="96" height="42" viewBox="0 0 96 42" fill="none" xmlns="http://www.w3.org/2000/svg">
<path d="M25.6775 41.3003H18.9723V24.7609H6.68126V41.3003H0V0.683782H6.68126V16.8853H18.9723V0.683782H25.6775V41.3003Z" fill="#0000FF"/>
<path d="M50.1333 41.3003H32.4611V0.683782H39.1458V33.8819H50.1333V41.3003Z" fill="#0000FF"/>
<path d="M52.7608 39.7442V30.6778C53.8434 31.9632 55.1732 33.018 56.6713 33.7796C57.9938 34.4454 59.4526 34.7958 60.9332 34.8032C61.6801 34.817 62.4243 34.711 63.1376 34.4893C63.7146 34.3119 64.2498 34.0194 64.7106 33.6294C65.1212 33.2736 65.4436 32.8274 65.6524 32.3259C65.8634 31.8083 65.969 31.2538 65.9629 30.6949C65.9776 29.9561 65.8076 29.2253 65.4682 28.569C65.1145 27.9201 64.653 27.3362 64.1032 26.8424C63.4691 26.2711 62.7838 25.7594 62.0559 25.3137C61.2688 24.8246 60.4203 24.3253 59.5103 23.8157C57.3903 22.6807 55.6035 21.0116 54.327 18.9736C53.1383 16.868 52.5483 14.4773 52.6209 12.0604C52.5762 10.1974 52.8926 8.34342 53.5524 6.60069C54.1097 5.17665 54.9769 3.89448 56.0912 2.84717C57.1578 1.8662 58.4244 1.12811 59.8038 0.683781C61.2478 0.219307 62.757 -0.0110912 64.2739 0.00132438C65.6482 -0.0145539 67.0205 0.112382 68.3686 0.380089C69.5167 0.621424 70.6267 1.01745 71.6683 1.55733V10.0266C71.172 9.55566 70.6276 9.1382 70.044 8.78114C69.47 8.42817 68.8646 8.1289 68.2355 7.88712C67.6419 7.656 67.0286 7.47898 66.4031 7.35822C65.8272 7.24774 65.2424 7.19063 64.656 7.1876C63.9556 7.17952 63.2581 7.27966 62.5882 7.48447C62.0143 7.65789 61.4799 7.94189 61.0151 8.32048C60.5935 8.67101 60.2545 9.11027 60.0221 9.60692C59.7845 10.1365 59.6679 10.7123 59.6809 11.2926C59.6688 11.9244 59.8032 12.5504 60.0733 13.1216C60.3578 13.6905 60.7362 14.2073 61.1926 14.6503C61.7318 15.1773 62.3203 15.6515 62.9499 16.0664C63.6324 16.5304 64.4172 17.0048 65.2907 17.4961C66.4113 18.1322 67.4794 18.8568 68.4846 19.6629C69.4133 20.4076 70.2323 21.2795 70.9176 22.2529C71.6126 23.2601 72.1372 24.3749 72.4702 25.5525C72.8509 26.9603 73.0323 28.4144 73.0093 29.8725C73.0636 31.8173 72.7427 33.7544 72.0641 35.5778C71.516 37.0109 70.6408 38.2962 69.5083 39.3314C68.4263 40.2864 67.1435 40.9861 65.7548 41.3787C64.2846 41.7983 62.7624 42.0074 61.2335 41.9998C59.6679 42.0063 58.1076 41.816 56.5894 41.4333C55.2216 41.1063 53.9244 40.534 52.7608 39.7442Z" fill="#0000FF"/>
<path d="M95.5441 41.3003H77.8752V0.683782H84.5565V33.8819H95.5441V41.3003Z" fill="#0000FF"/>
</svg>
