<svg width="102" height="42" viewBox="0 0 102 42" fill="none" xmlns="http://www.w3.org/2000/svg">
<path d="M11.5799 17.4826C11.9393 16.3842 12.4789 15.4114 13.1977 14.565C13.9165 13.7188 14.8114 13.0429 15.8813 12.5387C16.9513 12.0343 18.1973 11.7816 19.6189 11.7816C21.04 11.7816 22.2861 12.0344 23.356 12.5387C24.4259 13.0429 25.3209 13.7188 26.0396 14.565C26.7584 15.4113 27.298 16.3842 27.6574 17.4826C28.0168 18.581 28.197 19.7243 28.197 20.9125C28.197 22.1008 28.0168 23.2446 27.6574 24.3429C27.298 25.4413 26.7584 26.4142 26.0396 27.2606C25.3209 28.1068 24.4259 28.7786 23.356 29.2748C22.2861 29.7705 21.04 30.0192 19.6189 30.0192C18.1974 30.0192 16.9513 29.7706 15.8813 29.2748C14.8114 28.7786 13.9165 28.1068 13.1977 27.2606C12.4789 26.4142 11.9393 25.4413 11.5799 24.3429C11.2204 23.2446 11.0408 22.1008 11.0408 20.9125C11.0408 19.7243 11.2205 18.581 11.5799 17.4826ZM13.7674 23.5215C14.002 24.3769 14.3702 25.1466 14.8727 25.8306C15.3747 26.515 16.0192 27.0648 16.8063 27.4805C17.5929 27.896 18.5302 28.1033 19.6189 28.1033C20.7072 28.1033 21.6445 27.896 22.4316 27.4805C23.2181 27.0648 23.8627 26.515 24.3652 25.8306C24.8672 25.1466 25.2354 24.3769 25.4698 23.5215C25.7043 22.666 25.8216 21.7985 25.8216 20.9188C25.8216 20.0391 25.7043 19.1722 25.4698 18.3167C25.2354 17.4613 24.8671 16.6916 24.3652 16.007C23.8626 15.3231 23.2181 14.7733 22.4316 14.3577C21.6445 13.9421 20.7071 13.7343 19.6189 13.7343C18.5302 13.7343 17.5929 13.9421 16.8063 14.3577C16.0192 14.7734 15.3747 15.3232 14.8727 16.007C14.3702 16.6916 14.002 17.4613 13.7674 18.3167C13.533 19.1721 13.4163 20.0391 13.4163 20.9188C13.4163 21.7985 13.533 22.666 13.7674 23.5215Z" fill="#5586A4"/>
<path d="M31.7306 18.5246V20.0305H31.7683C32.0759 19.414 32.5596 18.9655 33.2195 18.6857C33.8793 18.406 34.6045 18.2661 35.3964 18.2661C36.2755 18.2661 37.0414 18.4238 37.694 18.7393C38.3463 19.0547 38.8882 19.4808 39.3208 20.0178C39.7532 20.5555 40.079 21.175 40.2993 21.8769C40.5191 22.579 40.6293 23.3241 40.6293 24.1121C40.6293 24.9002 40.5226 25.6452 40.3105 26.3475C40.0977 27.0497 39.7756 27.6623 39.3431 28.1851C38.9106 28.7078 38.368 29.12 37.7158 29.4204C37.0629 29.721 36.3048 29.8717 35.4399 29.8717C35.1612 29.8717 34.8495 29.843 34.5054 29.7859C34.1608 29.728 33.8202 29.6353 33.4832 29.5063C33.1463 29.3773 32.8269 29.201 32.5265 28.979C32.226 28.7567 31.9733 28.481 31.7682 28.1505H31.7305V33.8878H29.8452V18.5246H31.7306ZM38.4223 22.4761C38.2833 21.9821 38.0719 21.5417 37.7867 21.1548C37.5015 20.7681 37.1357 20.4601 36.6897 20.231C36.2431 20.0019 35.7206 19.8873 35.1214 19.8873C34.4922 19.8873 33.9585 20.0093 33.5201 20.2529C33.0811 20.4964 32.723 20.8147 32.4449 21.2085C32.1668 21.6023 31.9659 22.0502 31.8416 22.5517C31.7173 23.0529 31.6554 23.5613 31.6554 24.0765C31.6554 24.6211 31.7207 25.1474 31.8528 25.6556C31.9841 26.1647 32.1927 26.6118 32.4779 26.9988C32.763 27.3857 33.1318 27.6971 33.5855 27.9332C34.0391 28.1697 34.5877 28.2877 35.231 28.2877C35.8743 28.2877 36.4116 28.1663 36.8429 27.9228C37.2742 27.6793 37.6219 27.357 37.8852 26.9557C38.148 26.555 38.3382 26.0968 38.4555 25.581C38.5721 25.0651 38.631 24.5354 38.631 23.9909C38.6308 23.4754 38.5613 22.9705 38.4223 22.4761Z" fill="#5586A4"/>
<path d="M50.2451 28.9271C49.3931 29.5569 48.3215 29.8717 47.0288 29.8717C46.1179 29.8717 45.3279 29.7285 44.6598 29.4424C43.9911 29.1557 43.4291 28.7544 42.9736 28.2385C42.5183 27.7228 42.1766 27.1069 41.9491 26.3902C41.7217 25.6738 41.5933 24.8926 41.5638 24.0476C41.5638 23.2025 41.6958 22.4288 41.9609 21.7264C42.2254 21.0242 42.5966 20.4151 43.0744 19.8992C43.5522 19.3834 44.1184 18.9828 44.7723 18.6961C45.4263 18.4094 46.1433 18.2661 46.9228 18.2661C47.9374 18.2661 48.7787 18.4709 49.4479 18.8797C50.1173 19.289 50.6539 19.8094 51.0581 20.441C51.4623 21.0731 51.7421 21.7621 51.8965 22.5082C52.0508 23.2548 52.1133 23.9653 52.0839 24.64H43.5623C43.5475 25.1264 43.6059 25.5876 43.7378 26.0239C43.8698 26.4603 44.082 26.8466 44.3753 27.1828C44.6687 27.5189 45.0423 27.7866 45.4971 27.9869C45.9513 28.1873 46.4863 28.2874 47.1019 28.2874C47.8931 28.2874 48.5419 28.1085 49.0474 27.7498C49.5529 27.3911 49.8863 26.846 50.0477 26.1137H51.8977C51.6478 27.3595 51.0971 28.2972 50.2451 28.9271ZM49.7884 21.7961C49.6201 21.4104 49.3932 21.0776 49.108 20.799C48.8223 20.5204 48.4853 20.2988 48.0975 20.1341C47.7093 19.9695 47.281 19.8872 46.8126 19.8872C46.3295 19.8872 45.8936 19.9695 45.5058 20.1341C45.1176 20.2988 44.7848 20.5239 44.5066 20.8094C44.2285 21.0955 44.0088 21.4283 43.8479 21.807C43.6865 22.1859 43.5916 22.5899 43.5622 23.0188H50.0855C50.0559 22.5899 49.957 22.1823 49.7884 21.7961Z" fill="#5586A4"/>
<path d="M55.1056 18.5246V20.2891H55.141C55.9221 18.9408 57.1612 18.2661 58.8574 18.2661C59.6092 18.2661 60.2358 18.3668 60.7378 18.5677C61.2391 18.7687 61.6446 19.0484 61.9544 19.4072C62.2643 19.7657 62.4818 20.1924 62.6072 20.6874C62.7321 21.1825 62.7952 21.7313 62.7952 22.3339V29.6508H60.9099V22.1237C60.9099 21.4358 60.7036 20.8912 60.2918 20.4894C59.8795 20.088 59.3133 19.8871 58.5927 19.8871C58.019 19.8871 57.5222 19.9735 57.1028 20.1456C56.6833 20.3178 56.3339 20.5612 56.0547 20.8767C55.7756 21.1922 55.5658 21.5612 55.4261 21.9837C55.286 22.4068 55.2163 22.8691 55.2163 23.3711V29.6505H53.3311V18.5246H55.1056Z" fill="#5586A4"/>
<path d="M75.828 29.5298C74.9767 29.8805 74.117 30.0561 73.2498 30.0561C71.8806 30.0561 70.6498 29.8228 69.5564 29.3577C68.4628 28.8921 67.541 28.2508 66.7898 27.4333C66.0385 26.6164 65.4628 25.6562 65.0622 24.5532C64.6617 23.4503 64.4614 22.2608 64.4614 20.9863C64.4614 19.6795 64.6612 18.4659 65.0606 17.3463C65.4601 16.2271 66.0344 15.2508 66.7838 14.4172C67.5333 13.5835 68.4542 12.9302 69.5469 12.4558C70.6398 11.982 71.8705 11.7449 73.2397 11.7449C74.1576 11.7449 75.0461 11.8801 75.9055 12.1502C76.7652 12.4207 77.5412 12.8179 78.2341 13.3418C78.9268 13.8657 79.4983 14.5116 79.9489 15.2789C80.3997 16.0469 80.6755 16.9277 80.7756 17.9224H77.0204C76.7865 16.9444 76.3357 16.2103 75.6682 15.7211C75.0001 15.2317 74.1907 14.9871 73.2396 14.9871C72.3548 14.9871 71.6036 15.1545 70.9862 15.4896C70.3688 15.8247 69.8679 16.2743 69.4837 16.8379C69.0997 17.402 68.8204 18.0433 68.6456 18.7623C68.4699 19.4814 68.3828 20.2246 68.3828 20.9925C68.3828 21.7283 68.4704 22.4432 68.646 23.1375C68.8217 23.8317 69.1015 24.4569 69.4856 25.0125C69.8697 25.5679 70.3711 26.0129 70.9897 26.348C71.6078 26.683 72.36 26.8506 73.2463 26.8506C74.5495 26.8506 75.5557 26.5295 76.2661 25.8869C76.9766 25.2445 77.3903 24.313 77.5075 23.0926H73.5519V20.2188H81.0519V29.664H78.5564L78.1568 27.6826C77.4558 28.5632 76.6793 29.1792 75.828 29.5298Z" fill="#5586A4"/>
<path d="M87.4261 12.1869V26.4085H96.1392V29.6506H83.5046V12.1869H87.4261Z" fill="#5586A4"/>
<path d="M68.8807 31.8215C62.8808 35.3873 53.8944 37.4169 43.8678 37.4169C25.8033 37.4169 11.159 30.0669 11.159 20.9999C11.159 11.9328 25.8033 4.58285 43.8678 4.58285C53.9311 4.58285 62.954 6.65009 68.9542 10.2382C62.405 4.22632 50.6622 0.00205418 37.236 8.51196e-07C16.673 -0.00326581 0.00177347 9.39633 1.41486e-07 20.9942C-0.00177319 32.5919 16.6663 41.9972 37.2294 42C50.6023 42.0022 62.3145 37.7914 68.8807 31.8215Z" fill="#5586A4"/>
<path d="M101.349 28.0398C101.349 28.333 101.275 28.6061 101.129 28.8592C100.982 29.1123 100.782 29.3119 100.529 29.4577C100.276 29.6035 100.003 29.6765 99.7099 29.6765C99.4181 29.6765 99.1457 29.6036 98.8926 29.4577C98.6395 29.3119 98.4395 29.1123 98.293 28.8592C98.1464 28.6061 98.0732 28.3329 98.0732 28.0398C98.0732 27.7481 98.1464 27.4754 98.293 27.2214C98.4395 26.9675 98.6395 26.7678 98.8926 26.6218C99.1457 26.476 99.4181 26.4031 99.7099 26.4031C100.003 26.4031 100.276 26.4759 100.529 26.6218C100.782 26.7678 100.982 26.9675 101.129 27.2214C101.275 27.4754 101.349 27.7481 101.349 28.0398ZM101.031 28.0398C101.031 27.6752 100.902 27.3637 100.644 27.1056C100.386 26.8474 100.074 26.7184 99.7098 26.7184C99.3451 26.7184 99.0337 26.8475 98.7755 27.1056C98.5174 27.3637 98.3884 27.6752 98.3884 28.0398C98.3884 28.4045 98.5175 28.7158 98.7755 28.974C99.0337 29.2322 99.3451 29.3612 99.7098 29.3612C100.074 29.3612 100.386 29.2321 100.644 28.974C100.902 28.7158 101.031 28.4045 101.031 28.0398ZM98.9675 27.1646H99.7506C99.9722 27.1646 100.133 27.2093 100.232 27.2987C100.331 27.388 100.381 27.5077 100.381 27.658C100.381 27.7752 100.343 27.8768 100.268 27.9626C100.192 28.0484 100.072 28.1107 99.9093 28.1492C99.9765 28.175 100.026 28.2021 100.057 28.2307C100.102 28.2708 100.148 28.3301 100.197 28.4088C100.2 28.4145 100.294 28.5833 100.48 28.915H99.965C99.7977 28.5819 99.6854 28.3827 99.6283 28.3176C99.571 28.2526 99.5138 28.22 99.4566 28.22C99.4437 28.22 99.4258 28.2221 99.403 28.2264V28.915H98.9675V27.1646ZM99.403 27.9067H99.5917C99.7176 27.9067 99.8063 27.8864 99.8578 27.8457C99.9093 27.8048 99.935 27.7524 99.935 27.688C99.935 27.6237 99.9103 27.571 99.861 27.5303C99.8116 27.4895 99.7275 27.4693 99.6089 27.4693H99.403V27.9067Z" fill="#5586A4"/>
</svg>
