<svg width="27" height="30" viewBox="0 0 27 30" fill="none" xmlns="http://www.w3.org/2000/svg">
<g clip-path="url(#clip0_20_789)">
<path fill-rule="evenodd" clip-rule="evenodd" d="M25.8821 22.125C26.0886 21.7697 26.2158 21.3664 26.2158 21.0063V8.49373C26.2158 8.13363 26.0886 7.73271 25.8821 7.375L13.1079 14.75L25.8821 22.125Z" fill="#00599C"/>
<path fill-rule="evenodd" clip-rule="evenodd" d="M14.2435 29.2287L25.0803 22.9725C25.3924 22.7924 25.6757 22.4803 25.8821 22.125L13.1079 14.75L0.33371 22.125C0.540171 22.4803 0.823456 22.7924 1.13555 22.9725L11.9724 29.2287C12.5966 29.5912 13.6193 29.5912 14.2435 29.2287Z" fill="#004482"/>
<path fill-rule="evenodd" clip-rule="evenodd" d="M25.8821 7.37526C25.6757 7.01996 25.3924 6.70787 25.0803 6.52781L14.2434 0.271545C13.6193 -0.088562 12.5966 -0.088562 11.9724 0.271545L1.13554 6.52781C0.511353 6.88792 0 7.77138 0 8.494V21.0065C0 21.3666 0.127238 21.7676 0.3337 22.1253L13.1079 14.7503L25.8821 7.37526Z" fill="#659AD2"/>
<path fill-rule="evenodd" clip-rule="evenodd" d="M13.1079 23.4886C8.28966 23.4886 4.36929 19.5682 4.36929 14.75C4.36929 9.93172 8.28966 6.01135 13.1079 6.01135C16.2168 6.01135 19.1169 7.68465 20.675 10.3783L16.8938 12.5677C16.1136 11.2185 14.6636 10.3831 13.1079 10.3831C10.6976 10.3831 8.7386 12.342 8.7386 14.7524C8.7386 17.1603 10.6976 19.1217 13.1079 19.1217C14.6636 19.1217 16.1136 18.2838 16.8938 16.937L20.675 19.1265C19.1169 21.8153 16.2168 23.4886 13.1079 23.4886Z" fill="white"/>
<path fill-rule="evenodd" clip-rule="evenodd" d="M21.8465 14.265H20.8742V13.2927H19.9043V14.265H18.932V15.2349H19.9043V16.2072H20.8742V15.2349H21.8465V14.265Z" fill="white"/>
<path fill-rule="evenodd" clip-rule="evenodd" d="M25.486 14.265H24.5161V13.2927H23.5438V14.265H22.5739V15.2349H23.5438V16.2072H24.5161V15.2349H25.486V14.265Z" fill="white"/>
</g>
<defs>
<clipPath id="clip0_20_789">
<rect width="26.2134" height="29.5" fill="white"/>
</clipPath>
</defs>
</svg>
