<svg width="72" height="30" viewBox="0 0 72 30" fill="none" xmlns="http://www.w3.org/2000/svg">
<path d="M8.13348 12.2795C8.38593 11.5079 8.76497 10.8247 9.26982 10.2302C9.77466 9.63581 10.4033 9.16106 11.1547 8.80693C11.9063 8.45267 12.7814 8.27521 13.78 8.27521C14.7781 8.27521 15.6534 8.45273 16.4048 8.80693C17.1563 9.16106 17.7849 9.63581 18.2897 10.2302C18.7946 10.8246 19.1736 11.5079 19.426 12.2795C19.6785 13.0509 19.8051 13.854 19.8051 14.6886C19.8051 15.5232 19.6785 16.3265 19.426 17.098C19.1736 17.8695 18.7946 18.5528 18.2897 19.1473C17.7849 19.7417 17.1563 20.2135 16.4048 20.5621C15.6534 20.9103 14.7781 21.085 13.78 21.085C12.7815 21.085 11.9063 20.9103 11.1547 20.5621C10.4033 20.2135 9.77466 19.7417 9.26982 19.1473C8.76497 18.5529 8.38593 17.8695 8.13348 17.098C7.88102 16.3265 7.75483 15.5232 7.75483 14.6886C7.75483 13.854 7.88109 13.0509 8.13348 12.2795ZM9.66997 16.521C9.83471 17.1219 10.0934 17.6625 10.4463 18.143C10.7989 18.6236 11.2516 19.0098 11.8045 19.3018C12.3569 19.5936 13.0153 19.7392 13.78 19.7392C14.5444 19.7392 15.2027 19.5936 15.7556 19.3018C16.308 19.0098 16.7607 18.6236 17.1137 18.143C17.4662 17.6625 17.7248 17.1219 17.8895 16.521C18.0542 15.9202 18.1366 15.3108 18.1366 14.693C18.1366 14.0751 18.0542 13.4662 17.8895 12.8653C17.7248 12.2645 17.4662 11.7239 17.1137 11.243C16.7607 10.7626 16.308 10.3765 15.7556 10.0846C15.2027 9.79269 14.5443 9.6467 13.78 9.6467C13.0153 9.6467 12.357 9.79269 11.8045 10.0846C11.2516 10.3766 10.7989 10.7627 10.4463 11.243C10.0933 11.7239 9.83471 12.2645 9.66997 12.8653C9.50529 13.4662 9.42335 14.0751 9.42335 14.693C9.42335 15.3108 9.50529 15.9202 9.66997 16.521Z" fill="#5586A4"/>
<path d="M22.287 13.0113V14.0691H22.3135C22.5295 13.636 22.8693 13.321 23.3327 13.1245C23.7962 12.928 24.3056 12.8297 24.8617 12.8297C25.4792 12.8297 26.0172 12.9405 26.4756 13.1621C26.9337 13.3837 27.3144 13.683 27.6182 14.0602C27.9219 14.4378 28.1507 14.8729 28.3055 15.3659C28.4599 15.8591 28.5373 16.3824 28.5373 16.9359C28.5373 17.4894 28.4623 18.0127 28.3133 18.506C28.1639 18.9992 27.9376 19.4295 27.6338 19.7967C27.3301 20.1638 26.949 20.4533 26.4909 20.6644C26.0323 20.8755 25.4998 20.9813 24.8923 20.9813C24.6965 20.9813 24.4777 20.9612 24.236 20.9211C23.9939 20.8804 23.7547 20.8153 23.518 20.7247C23.2813 20.6341 23.057 20.5102 22.846 20.3543C22.635 20.1982 22.4574 20.0045 22.3134 19.7724H22.2869V23.8022H20.9627V13.0113H22.287ZM26.9871 15.7868C26.8894 15.4398 26.741 15.1305 26.5407 14.8588C26.3404 14.5871 26.0834 14.3708 25.7702 14.2099C25.4565 14.0489 25.0895 13.9684 24.6686 13.9684C24.2266 13.9684 23.8518 14.0542 23.5439 14.2252C23.2356 14.3963 22.984 14.6199 22.7887 14.8965C22.5934 15.173 22.4523 15.4876 22.3649 15.8399C22.2776 16.192 22.2342 16.549 22.2342 16.9109C22.2342 17.2934 22.28 17.6631 22.3728 18.02C22.465 18.3776 22.6116 18.6917 22.8119 18.9635C23.0121 19.2352 23.2712 19.4539 23.5898 19.6198C23.9084 19.7858 24.2938 19.8688 24.7456 19.8688C25.1975 19.8688 25.5749 19.7835 25.8778 19.6125C26.1807 19.4414 26.4249 19.2151 26.6099 18.9332C26.7945 18.6517 26.9281 18.3299 27.0104 17.9676C27.0923 17.6053 27.1337 17.2332 27.1337 16.8508C27.1336 16.4887 27.0847 16.1341 26.9871 15.7868Z" fill="#5586A4"/>
<path d="M35.2912 20.3178C34.6928 20.7602 33.9401 20.9813 33.0321 20.9813C32.3924 20.9813 31.8374 20.8808 31.3682 20.6798C30.8985 20.4784 30.5038 20.1966 30.1839 19.8342C29.864 19.472 29.624 19.0394 29.4643 18.536C29.3046 18.0328 29.2144 17.4841 29.1937 16.8906C29.1937 16.297 29.2864 15.7536 29.4725 15.2602C29.6583 14.767 29.919 14.3392 30.2547 13.9768C30.5903 13.6145 30.9879 13.3331 31.4473 13.1318C31.9066 12.9304 32.4102 12.8297 32.9577 12.8297C33.6703 12.8297 34.2612 12.9736 34.7313 13.2608C35.2014 13.5482 35.5784 13.9138 35.8622 14.3574C36.1462 14.8013 36.3427 15.2853 36.4511 15.8093C36.5595 16.3338 36.6034 16.8328 36.5828 17.3067H30.5973C30.587 17.6483 30.6279 17.9723 30.7206 18.2787C30.8133 18.5852 30.9623 18.8565 31.1684 19.0927C31.3745 19.3288 31.6369 19.5168 31.9563 19.6575C32.2754 19.7982 32.6511 19.8686 33.0835 19.8686C33.6392 19.8686 34.0949 19.7429 34.45 19.4909C34.805 19.239 35.0392 18.8561 35.1526 18.3418H36.452C36.2765 19.2168 35.8896 19.8755 35.2912 20.3178ZM34.9704 15.3092C34.8522 15.0382 34.6929 14.8045 34.4926 14.6089C34.2919 14.4132 34.0552 14.2575 33.7828 14.1418C33.5101 14.0262 33.2093 13.9684 32.8803 13.9684C32.541 13.9684 32.2348 14.0262 31.9625 14.1418C31.6898 14.2575 31.456 14.4156 31.2606 14.6161C31.0653 14.8171 30.911 15.0508 30.7979 15.3169C30.6846 15.5829 30.6179 15.8667 30.5973 16.168H35.1791C35.1584 15.8667 35.0889 15.5805 34.9704 15.3092Z" fill="#5586A4"/>
<path d="M38.7052 13.0113V14.2507H38.73C39.2787 13.3036 40.149 12.8297 41.3403 12.8297C41.8684 12.8297 42.3085 12.9005 42.6611 13.0416C43.0132 13.1828 43.298 13.3792 43.5157 13.6312C43.7333 13.8831 43.886 14.1827 43.9741 14.5305C44.0619 14.8782 44.1062 15.2636 44.1062 15.6869V20.8261H42.782V15.5393C42.782 15.0561 42.6371 14.6736 42.3478 14.3913C42.0582 14.1095 41.6606 13.9683 41.1544 13.9683C40.7515 13.9683 40.4025 14.029 40.1079 14.1499C39.8133 14.2709 39.5679 14.4418 39.3717 14.6634C39.1757 14.885 39.0284 15.1442 38.9303 15.441C38.8318 15.7381 38.7829 16.0628 38.7829 16.4154V20.826H37.4588V13.0113H38.7052Z" fill="#5586A4"/>
<path d="M53.2602 20.7412C52.6622 20.9875 52.0584 21.1109 51.4493 21.1109C50.4876 21.1109 49.6231 20.947 48.8551 20.6203C48.087 20.2932 47.4395 19.8428 46.9119 19.2686C46.3842 18.6949 45.9799 18.0204 45.6985 17.2457C45.4172 16.471 45.2765 15.6356 45.2765 14.7404C45.2765 13.8225 45.4168 12.9701 45.6973 12.1837C45.978 11.3976 46.3813 10.7119 46.9077 10.1264C47.4342 9.54082 48.0809 9.08194 48.8485 8.74872C49.6161 8.41596 50.4805 8.24938 51.4422 8.24938C52.0869 8.24938 52.711 8.34437 53.3146 8.53409C53.9185 8.72407 54.4635 9.00307 54.9502 9.37104C55.4367 9.739 55.8381 10.1926 56.1546 10.7316C56.4713 11.271 56.665 11.8897 56.7353 12.5884H54.0977C53.9334 11.9014 53.6168 11.3858 53.1479 11.0422C52.6787 10.6985 52.1102 10.5266 51.4422 10.5266C50.8207 10.5266 50.293 10.6443 49.8594 10.8796C49.4257 11.1149 49.0739 11.4308 48.8041 11.8266C48.5343 12.2228 48.3382 12.6733 48.2154 13.1783C48.0919 13.6833 48.0308 14.2054 48.0308 14.7448C48.0308 15.2615 48.0923 15.7637 48.2157 16.2514C48.3391 16.739 48.5356 17.178 48.8054 17.5683C49.0752 17.9584 49.4274 18.271 49.8618 18.5063C50.296 18.7417 50.8243 18.8594 51.4468 18.8594C52.3622 18.8594 53.0689 18.6338 53.5679 18.1825C54.0669 17.7313 54.3575 17.077 54.4398 16.2198H51.6615V14.2013H56.9294V20.8355H55.1765L54.8959 19.4437C54.4035 20.0623 53.8581 20.495 53.2602 20.7412Z" fill="#5586A4"/>
<path d="M61.4065 8.55985V18.5488H67.5264V20.826H58.6521V8.55985H61.4065Z" fill="#5586A4"/>
<path d="M48.3805 22.3508C44.1663 24.8554 37.8544 26.281 30.8119 26.281C18.1238 26.281 7.83789 21.1185 7.83789 14.7499C7.83789 8.38141 18.1238 3.21891 30.8119 3.21891C37.8802 3.21891 44.2177 4.6709 48.4321 7.19112C43.8321 2.96849 35.5842 0.00144282 26.1538 5.97864e-07C11.7108 -0.00229385 0.00124565 6.59981 9.93774e-08 14.7459C-0.00124546 22.8919 11.7061 29.498 26.1493 29.5C35.5421 29.5016 43.7686 26.544 48.3805 22.3508Z" fill="#5586A4"/>
<path d="M71.1854 19.6947C71.1854 19.9006 71.1339 20.0924 71.031 20.2702C70.928 20.448 70.7877 20.5881 70.6099 20.6905C70.4321 20.793 70.2402 20.8442 70.0344 20.8442C69.8295 20.8442 69.6381 20.793 69.4603 20.6905C69.2825 20.5881 69.1421 20.448 69.0392 20.2702C68.9362 20.0924 68.8848 19.9005 68.8848 19.6947C68.8848 19.4897 68.9362 19.2982 69.0392 19.1198C69.1421 18.9415 69.2825 18.8012 69.4603 18.6987C69.6381 18.5963 69.8295 18.545 70.0344 18.545C70.2403 18.545 70.4321 18.5962 70.6099 18.6987C70.7877 18.8012 70.928 18.9415 71.031 19.1198C71.1339 19.2982 71.1854 19.4897 71.1854 19.6947ZM70.9624 19.6947C70.9624 19.4385 70.8717 19.2198 70.6905 19.0384C70.5091 18.8571 70.2904 18.7665 70.0343 18.7665C69.7782 18.7665 69.5594 18.8572 69.3781 19.0384C69.1968 19.2198 69.1062 19.4385 69.1062 19.6947C69.1062 19.9508 69.1968 20.1695 69.3781 20.3508C69.5594 20.5321 69.7782 20.6227 70.0343 20.6227C70.2904 20.6227 70.5091 20.5321 70.6905 20.3508C70.8717 20.1695 70.9624 19.9508 70.9624 19.6947ZM69.513 19.0799H70.063C70.2186 19.0799 70.3314 19.1113 70.4012 19.1741C70.4709 19.2368 70.5059 19.3209 70.5059 19.4265C70.5059 19.5088 70.4793 19.5801 70.4261 19.6404C70.3728 19.7007 70.2889 19.7444 70.1744 19.7715C70.2216 19.7896 70.2563 19.8087 70.2784 19.8287C70.3095 19.8569 70.3422 19.8985 70.3763 19.9538C70.3783 19.9578 70.4446 20.0764 70.5752 20.3094H70.2135C70.0961 20.0754 70.0172 19.9354 69.9771 19.8898C69.9368 19.8441 69.8967 19.8212 69.8565 19.8212C69.8474 19.8212 69.8348 19.8227 69.8188 19.8257V20.3094H69.513V19.0799ZM69.8188 19.6012H69.9514C70.0398 19.6012 70.1021 19.5869 70.1383 19.5583C70.1744 19.5296 70.1925 19.4928 70.1925 19.4475C70.1925 19.4023 70.1751 19.3654 70.1405 19.3368C70.1058 19.3081 70.0468 19.2939 69.9634 19.2939H69.8188V19.6012Z" fill="#5586A4"/>
</svg>
