<svg width="34" height="30" viewBox="0 0 34 30" fill="none" xmlns="http://www.w3.org/2000/svg">
<path fill-rule="evenodd" clip-rule="evenodd" d="M33.1258 14.754C33.1258 12.5597 30.3788 10.4812 26.1653 9.18994C27.1385 4.89555 26.7045 1.47999 24.8012 0.385498C24.3618 0.129398 23.8496 0.00808736 23.2889 0.00808736V1.51503C23.5989 1.51503 23.8496 1.57704 24.0599 1.69026C24.9792 2.21594 25.3754 4.2216 25.0654 6.80147C24.9899 7.43498 24.8686 8.10354 24.7204 8.78557C23.3967 8.46208 21.9518 8.21137 20.4341 8.04962C19.5229 6.80147 18.5767 5.66654 17.6251 4.6745C19.8248 2.6257 21.8898 1.50695 23.2943 1.50695V0C21.4369 0 19.008 1.32363 16.5494 3.62044C14.0909 1.33711 11.662 0.0269579 9.80458 0.0269579V1.5339C11.201 1.5339 13.2741 2.64726 15.4765 4.67989C14.5303 5.67194 13.5868 6.79878 12.6891 8.04962C11.1633 8.21137 9.71831 8.46208 8.39468 8.79096C8.23833 8.11702 8.1251 7.46194 8.04423 6.83382C7.72613 4.25395 8.11971 2.24829 9.03089 1.71452C9.23307 1.59321 9.49726 1.53929 9.80727 1.53929V0.0350452C9.24116 0.0350452 8.72626 0.156356 8.28146 0.412455C6.38362 1.50695 5.95769 4.91712 6.93896 9.19803C2.73353 10.492 0 12.5651 0 14.754C0 16.9484 2.74701 19.0269 6.96052 20.3181C5.98734 24.6125 6.42136 28.0281 8.32459 29.1226C8.764 29.3787 9.2762 29.5 9.84502 29.5C11.7024 29.5 14.1313 28.1764 16.5899 25.8796C19.0484 28.1629 21.4773 29.473 23.3347 29.473C23.9008 29.473 24.4157 29.3517 24.8605 29.0956C26.7584 28.0011 27.1843 24.591 26.2031 20.3101C30.3923 19.0215 33.1258 16.9403 33.1258 14.754ZM19.6415 14.754C19.6415 13.0503 18.2613 11.6674 16.5548 11.6674C14.8511 11.6674 13.4682 13.0476 13.4682 14.754C13.4682 16.4605 14.8484 17.8407 16.5548 17.8407C18.2613 17.838 19.6415 16.4578 19.6415 14.754ZM24.3349 10.2494C24.0842 11.1201 23.7741 12.0178 23.4237 12.9155C23.146 12.3764 22.8576 11.8345 22.5395 11.2953C22.2295 10.7562 21.8979 10.2278 21.5663 9.71562C22.526 9.85849 23.4507 10.0337 24.3349 10.2494ZM21.2428 17.4417C20.7171 18.3529 20.1753 19.2183 19.6145 20.0216C18.609 20.1106 17.59 20.1564 16.5629 20.1564C15.5439 20.1564 14.5249 20.1079 13.5248 20.027C12.964 19.2237 12.4168 18.3664 11.8911 17.4606C11.3789 16.5764 10.9125 15.6787 10.4866 14.7729C10.9045 13.8671 11.3789 12.964 11.883 12.0798C12.4087 11.1686 12.9506 10.3033 13.5113 9.49996C14.5168 9.41099 15.5358 9.36517 16.5629 9.36517C17.5819 9.36517 18.6009 9.41369 19.6011 9.49456C20.1618 10.2979 20.709 11.1552 21.2347 12.061C21.7469 12.9452 22.2133 13.8429 22.6392 14.7487C22.2133 15.6517 21.7496 16.5548 21.2428 17.4417ZM23.4237 16.5629C23.7876 17.4687 24.0976 18.3718 24.3564 19.2506C23.4722 19.4663 22.5395 19.6496 21.5744 19.7898C21.906 19.2695 22.2349 18.7357 22.5476 18.1885C22.8549 17.6493 23.146 17.1021 23.4237 16.5629ZM16.5764 23.7661C15.9483 23.1191 15.3202 22.3966 14.7001 21.6067C15.3067 21.6337 15.9294 21.6553 16.5575 21.6553C17.191 21.6553 17.8192 21.6418 18.4338 21.6067C17.8245 22.3966 17.1964 23.1191 16.5764 23.7661ZM11.5541 19.7898C10.5944 19.6469 9.66979 19.4717 8.78557 19.256C9.03628 18.3853 9.34629 17.4876 9.69675 16.5899C9.97441 17.129 10.2629 17.6709 10.581 18.21C10.8991 18.7519 11.2226 19.2776 11.5541 19.7898ZM16.5414 5.73933C17.1695 6.38632 17.7976 7.10879 18.4176 7.89866C17.8111 7.8717 17.1883 7.85013 16.5602 7.85013C15.9267 7.85013 15.2986 7.86361 14.684 7.89866C15.2932 7.10879 15.9213 6.38632 16.5414 5.73933ZM11.5461 9.71562C11.2145 10.2359 10.8856 10.7697 10.5729 11.3169C10.2629 11.8561 9.97172 12.3979 9.69405 12.9371C9.33012 12.0313 9.0201 11.1282 8.76131 10.2494C9.64822 10.0391 10.581 9.85849 11.5461 9.71562ZM5.43471 18.1696C3.04354 17.1506 1.49886 15.8135 1.49886 14.754C1.49886 13.6946 3.04624 12.3494 5.43471 11.3385C6.0143 11.0878 6.65051 10.8667 7.30558 10.6564C7.69108 11.9801 8.19789 13.3576 8.82601 14.7675C8.20598 16.172 7.70456 17.5415 7.32715 18.8597C6.65859 18.6495 6.02239 18.4203 5.43471 18.1696ZM9.06863 27.8178C8.14936 27.2922 7.75308 25.2865 8.0631 22.7066C8.13858 22.0731 8.25989 21.4046 8.40816 20.7225C9.73179 21.046 11.1767 21.2967 12.6945 21.4585C13.6056 22.7066 14.5519 23.8415 15.5035 24.8336C13.301 26.8797 11.236 28.0011 9.83154 28.0011C9.52691 27.9931 9.27081 27.9337 9.06863 27.8178ZM25.0843 22.6743C25.4024 25.2541 25.0088 27.2598 24.0976 27.7936C23.8955 27.9149 23.6313 27.9688 23.3213 27.9688C21.9248 27.9688 19.8518 26.8554 17.6493 24.8228C18.5955 23.8308 19.5391 22.7039 20.4368 21.4531C21.9626 21.2913 23.4075 21.0406 24.7312 20.709C24.8875 21.3911 25.0088 22.0461 25.0843 22.6743ZM27.683 18.1696C27.1034 18.4203 26.4672 18.6414 25.8122 18.8516C25.4267 17.528 24.9199 16.1505 24.2917 14.7406C24.9118 13.3361 25.4132 11.9666 25.7906 10.6484C26.4592 10.8586 27.0927 11.0878 27.6884 11.3358C30.0796 12.3548 31.6243 13.6919 31.6243 14.7513C31.6189 15.8135 30.0742 17.156 27.683 18.1696Z" fill="#00D8FF"/>
</svg>
