<svg width="39" height="39" viewBox="0 0 39 39" fill="none" xmlns="http://www.w3.org/2000/svg">
<path d="M19.5 0C8.73029 0 0 8.73029 0 19.5C0 30.2696 8.73029 38.9999 19.5 38.9999C30.2696 38.9999 38.9999 30.2696 38.9999 19.5C38.9999 8.73029 30.2696 0 19.5 0ZM11.8442 13.4062H27.1192C27.9296 13.4062 27.5112 14.4462 27.0704 14.7123C26.6296 14.9764 20.5298 18.6671 20.3003 18.8032C20.0707 18.9393 19.7782 19.0064 19.4817 19.0064C19.1963 19.0122 18.9145 18.9421 18.6651 18.8032L11.8929 14.7123C11.4522 14.4462 11.0358 13.4062 11.8442 13.4062ZM27.6249 24.5781C27.6249 25.0046 27.1131 25.5937 26.7231 25.5937H12.2768C11.8868 25.5937 11.375 25.0046 11.375 24.5781V17.1701C11.375 16.9832 11.3709 16.7415 11.7243 16.9467L18.6651 21.0396C18.9101 21.1894 19.1951 21.2603 19.4817 21.2428C19.7782 21.2428 19.9936 21.2204 20.3003 21.0396L27.2756 16.9487C27.629 16.7415 27.6249 16.9853 27.6249 17.1722V24.5781Z" fill="black"/>
</svg>
