<svg width="39" height="39" viewBox="0 0 39 39" fill="none" xmlns="http://www.w3.org/2000/svg">
<path d="M33.2312 33.2312H27.4527V24.18C27.4527 22.022 27.4137 19.2432 24.4464 19.2432C21.4369 19.2432 20.9754 21.5962 20.9754 24.0207V33.2312H15.197V14.6185H20.7447V17.1633H20.8227C21.9537 15.2328 24.0597 14.0758 26.2957 14.157C32.1522 14.157 33.2344 18.0082 33.2344 23.023L33.2312 33.2312ZM8.67748 12.0738C7.78982 12.0695 6.93969 11.7152 6.31171 11.0878C5.68373 10.4605 5.32861 9.61068 5.32349 8.72302C5.32349 6.88353 6.83798 5.36903 8.67748 5.36903C10.517 5.36903 12.0282 6.88353 12.0315 8.72302C12.0315 10.5625 10.517 12.0738 8.67748 12.0738ZM11.5667 33.2312H5.78173V14.6185H11.5667V33.2312ZM36.1074 4.83054e-05H2.87624C2.12273 -0.00432823 1.39794 0.288841 0.859373 0.815849C0.320803 1.34286 0.0119751 2.06111 0 2.81454V36.1855C0.0119751 36.9389 0.320803 37.6571 0.859373 38.1841C1.39794 38.7112 2.12273 39.0043 2.87624 38.9999H36.1107C36.8659 39.0061 37.593 38.7139 38.1341 38.1868C38.6751 37.6598 38.9862 36.9406 38.9999 36.1855V2.81129C38.9862 2.05673 38.6748 1.33816 38.1336 0.812184C37.5925 0.286206 36.8653 -0.00454431 36.1107 0.00329806L36.1074 4.83054e-05Z" fill="#0A66C2"/>
</svg>
