<svg width="48" height="42" viewBox="0 0 48 42" fill="none" xmlns="http://www.w3.org/2000/svg">
<path fill-rule="evenodd" clip-rule="evenodd" d="M47.1622 21.0057C47.1622 17.8816 43.2512 14.9224 37.2523 13.084C38.6378 6.96993 38.0199 2.1071 35.3102 0.548844C34.6846 0.184227 33.9554 0.0115142 33.1571 0.0115142V2.15699C33.5984 2.15699 33.9554 2.24527 34.2548 2.40647C35.5635 3.15489 36.1277 6.01041 35.6864 9.68344C35.5789 10.5854 35.4062 11.5372 35.1951 12.5083C33.3106 12.0477 31.2534 11.6908 29.0926 11.4605C27.7953 9.68344 26.4481 8.06762 25.0933 6.65521C28.2251 3.73828 31.1651 2.14548 33.1647 2.14548V0C30.5203 0 27.0622 1.88449 23.5619 5.15452C20.0616 1.90368 16.6035 0.0383807 13.9591 0.0383807V2.18386C15.9472 2.18386 18.8986 3.76898 22.0343 6.66289C20.6872 8.07529 19.3439 9.67961 18.0658 11.4605C15.8934 11.6908 13.8362 12.0477 11.9517 12.5159C11.7291 11.5564 11.5679 10.6238 11.4528 9.7295C10.9999 6.05647 11.5603 3.20095 12.8575 2.44101C13.1454 2.2683 13.5215 2.19154 13.9629 2.19154V0.0498949C13.1569 0.0498949 12.4238 0.222608 11.7905 0.587224C9.08854 2.14548 8.48213 7.00063 9.87918 13.0955C3.8918 14.9378 0 17.8892 0 21.0057C0 24.1299 3.91099 27.0891 9.90989 28.9275C8.52435 35.0416 9.14228 39.9044 11.852 41.4626C12.4776 41.8273 13.2068 42 14.0166 42C16.6611 42 20.1192 40.1155 23.6195 36.8455C27.1198 40.0963 30.5779 41.9616 33.2223 41.9616C34.0283 41.9616 34.7614 41.7889 35.3947 41.4243C38.0967 39.866 38.7031 35.0109 37.306 28.916C43.2704 27.0814 47.1622 24.1184 47.1622 21.0057ZM27.9642 21.0057C27.9642 18.5801 25.9991 16.6112 23.5696 16.6112C21.1439 16.6112 19.175 18.5762 19.175 21.0057C19.175 23.4352 21.1401 25.4003 23.5696 25.4003C25.9991 25.3965 27.9642 23.4314 27.9642 21.0057ZM34.6462 14.5923C34.2893 15.832 33.8479 17.1101 33.349 18.3882C32.9536 17.6206 32.543 16.8491 32.0901 16.0815C31.6487 15.3139 31.1766 14.5616 30.7045 13.8324C32.0709 14.0358 33.3873 14.2853 34.6462 14.5923ZM30.244 24.8323C29.4955 26.1296 28.7241 27.3616 27.9258 28.5053C26.4942 28.632 25.0434 28.6972 23.5811 28.6972C22.1303 28.6972 20.6795 28.6281 19.2556 28.513C18.4573 27.3693 17.6781 26.1488 16.9297 24.8592C16.2005 23.6003 15.5365 22.3222 14.9301 21.0326C15.525 19.743 16.2005 18.4573 16.9182 17.1984C17.6666 15.9011 18.4381 14.6691 19.2364 13.5254C20.668 13.3987 22.1188 13.3334 23.5811 13.3334C25.0319 13.3334 26.4827 13.4025 27.9066 13.5177C28.7049 14.6614 29.484 15.8819 30.2325 17.1715C30.9617 18.4304 31.6257 19.7085 32.2321 20.9981C31.6257 22.2838 30.9655 23.5696 30.244 24.8323ZM33.349 23.5811C33.8671 24.8707 34.3085 26.1564 34.6769 27.4076C33.4181 27.7147 32.0901 27.9757 30.7161 28.1753C31.1881 27.4345 31.6564 26.6746 32.1016 25.8954C32.5391 25.1278 32.9536 24.3487 33.349 23.5811ZM23.6003 33.8364C22.706 32.9153 21.8117 31.8867 20.929 30.7621C21.7925 30.8005 22.6791 30.8312 23.5734 30.8312C24.4754 30.8312 25.3696 30.812 26.2447 30.7621C25.3773 31.8867 24.483 32.9153 23.6003 33.8364ZM16.45 28.1753C15.0836 27.9718 13.7671 27.7224 12.5083 27.4153C12.8652 26.1756 13.3066 24.8975 13.8055 23.6195C14.2008 24.3871 14.6115 25.1585 15.0644 25.9261C15.5173 26.6976 15.9779 27.446 16.45 28.1753ZM23.5504 8.17125C24.4447 9.09238 25.3389 10.121 26.2217 11.2455C25.3581 11.2072 24.4715 11.1765 23.5772 11.1765C22.6753 11.1765 21.781 11.1956 20.906 11.2455C21.7734 10.121 22.6676 9.09238 23.5504 8.17125ZM16.4384 13.8324C15.9664 14.5731 15.4981 15.3331 15.0529 16.1122C14.6115 16.8798 14.197 17.6513 13.8017 18.4189C13.2836 17.1293 12.8422 15.8435 12.4737 14.5923C13.7364 14.293 15.0644 14.0358 16.4384 13.8324ZM7.73754 25.8686C4.33318 24.4178 2.13397 22.5141 2.13397 21.0057C2.13397 19.4974 4.33702 17.5822 7.73754 16.1429C8.56273 15.786 9.46851 15.4712 10.4012 15.1719C10.95 17.0564 11.6716 19.0176 12.5658 21.0249C11.6831 23.0246 10.9692 24.9743 10.4319 26.8511C9.48003 26.5518 8.57424 26.2255 7.73754 25.8686ZM12.9113 39.605C11.6025 38.8566 11.0383 36.0011 11.4797 32.328C11.5871 31.4261 11.7598 30.4743 11.9709 29.5032C13.8554 29.9638 15.9126 30.3207 18.0735 30.551C19.3707 32.328 20.7179 33.9439 22.0727 35.3563C18.937 38.2694 15.9971 39.866 13.9974 39.866C13.5637 39.8545 13.1991 39.7701 12.9113 39.605ZM35.7132 32.282C36.1661 35.955 35.6057 38.8105 34.3085 39.5705C34.0206 39.7432 33.6445 39.82 33.2031 39.82C31.215 39.82 28.2635 38.2348 25.1278 35.3409C26.475 33.9285 27.8183 32.3242 29.0964 30.5433C31.2687 30.3131 33.3259 29.9561 35.2104 29.484C35.433 30.4551 35.6058 31.3877 35.7132 32.282ZM39.4131 25.8686C38.5879 26.2255 37.6821 26.5402 36.7495 26.8396C36.2007 24.9551 35.4791 22.9939 34.5848 20.9866C35.4676 18.9869 36.1815 17.0372 36.7188 15.1604C37.6706 15.4597 38.5726 15.786 39.4208 16.1391C42.8252 17.5899 45.0244 19.4935 45.0244 21.0019C45.0167 22.5141 42.8175 24.4255 39.4131 25.8686Z" fill="#00D8FF"/>
</svg>
