<svg width="36" height="34" viewBox="0 0 36 34" fill="none" xmlns="http://www.w3.org/2000/svg">
<path d="M6.33736 0H29.4521C31.1329 0 32.7448 0.650599 33.9333 1.80867C35.1218 2.96675 35.7895 4.53743 35.7895 6.1752V27.8248C35.7895 29.4626 35.1218 31.0332 33.9333 32.1913C32.7448 33.3494 31.1329 34 29.4521 34H6.33736C4.65658 34 3.04465 33.3494 1.85617 32.1913C0.667684 31.0332 0 29.4626 0 27.8248V6.1752C0 4.53743 0.667684 2.96675 1.85617 1.80867C3.04465 0.650599 4.65658 0 6.33736 0Z" fill="#1E3101"/>
<path d="M7.741 23.8427V8.89433C7.741 8.78545 7.78849 8.73102 7.88486 8.73102C8.14045 8.73102 8.44445 8.72716 8.79688 8.71945C9.1493 8.71174 9.52943 8.7038 9.93725 8.69563L11.2341 8.6725C11.6903 8.66433 12.1424 8.66025 12.5902 8.66025C13.8067 8.66025 14.8309 8.80859 15.6629 9.10527C16.414 9.35235 17.099 9.7599 17.6678 10.2981C18.15 10.7645 18.5226 11.3273 18.76 11.9476C18.9847 12.5511 19.0987 13.1884 19.0966 13.8304C19.0966 15.0784 18.8005 16.1077 18.2083 16.9183C17.6122 17.7331 16.7743 18.3506 15.8074 18.6875C14.7299 19.0653 13.5914 19.2515 12.4464 19.2374C12.0939 19.2374 11.8458 19.2333 11.7019 19.2251C11.5581 19.2176 11.3416 19.2135 11.0539 19.2135V23.8223C11.0609 23.8711 11.0477 23.9206 11.0174 23.96C10.987 23.9994 10.9419 24.0255 10.8919 24.0326C10.8741 24.0353 10.8559 24.0353 10.8381 24.0326H7.9086C7.79687 24.0299 7.741 23.9679 7.741 23.8427ZM11.0539 11.5379V16.3808C11.2615 16.3967 11.4536 16.4044 11.63 16.4039H12.4219C13.003 16.4121 13.5819 16.3331 14.1384 16.1698C14.6141 16.0322 15.0392 15.7644 15.3633 15.3982C15.6752 15.0398 15.8312 14.5408 15.8312 13.9012C15.8433 13.4488 15.7221 13.0025 15.482 12.6151C15.2287 12.2399 14.8629 11.9498 14.4345 11.7843C13.8765 11.5733 13.2806 11.474 12.6824 11.4923C12.2983 11.4923 11.9582 11.4962 11.6621 11.5039C11.366 11.5116 11.1619 11.5232 11.0497 11.5386L11.0539 11.5379Z" fill="#99E83F"/>
<path d="M28.0031 21.7142V23.6325C28.0031 23.8039 27.9391 23.9053 27.811 23.9366C27.4959 24.0326 27.1753 24.1108 26.8508 24.1707C26.4706 24.2367 26.0848 24.2679 25.6986 24.2639C24.6581 24.2639 23.842 23.9988 23.2502 23.4685C22.6585 22.9382 22.3624 22.0883 22.362 20.9188V15.1172H20.9444C20.8166 15.1172 20.7523 15.0491 20.7523 14.9069V12.5886C20.7523 12.464 20.8221 12.4014 20.9688 12.4014H22.385C22.4008 12.1365 22.4209 11.8285 22.4451 11.4774C22.4695 11.1269 22.5009 10.7758 22.5414 10.4247C22.5819 10.0736 22.6169 9.78914 22.649 9.57139C22.6643 9.52484 22.6879 9.4813 22.7188 9.44278C22.7499 9.40471 22.7916 9.37613 22.8389 9.36045L25.6986 9.01205C25.742 8.99949 25.7886 9.00165 25.8306 9.01817C25.8627 9.03382 25.8669 9.07465 25.8669 9.15426C25.8348 9.51309 25.8115 10.0005 25.7971 10.6166C25.7826 11.2326 25.7666 11.8289 25.7489 12.4055H27.9835C28.0799 12.4055 28.1281 12.4681 28.1281 12.5926V14.9559C28.1338 14.993 28.1244 15.0308 28.102 15.0613C28.0796 15.0918 28.0459 15.1125 28.008 15.1192H25.7223V20.1254C25.7223 20.6561 25.8154 21.0345 26.0017 21.2604C26.1879 21.4863 26.528 21.5997 27.0219 21.6006C27.1658 21.6006 27.3013 21.5972 27.4305 21.589C27.5596 21.5809 27.686 21.5693 27.8145 21.5537C27.836 21.5459 27.859 21.5429 27.8819 21.5449C27.9047 21.5469 27.9268 21.5539 27.9465 21.5652C27.968 21.5835 27.9844 21.6067 27.9943 21.6327C28.0042 21.6587 28.0072 21.6868 28.0031 21.7142Z" fill="#99E83F"/>
</svg>
