<svg width="42" height="34" viewBox="0 0 42 34" fill="none" xmlns="http://www.w3.org/2000/svg">
<path d="M3.36848 0.9133C5.47897 -0.304433 7.99855 -0.304433 10.109 0.9133L27.8608 11.1618C29.9713 12.3795 31.2311 14.5626 31.2311 17C31.2311 19.0512 30.3364 20.9189 28.7975 22.1864L24.8117 19.8847L25.821 19.3036C27.0216 18.6115 27.1497 17.4645 27.1497 17.0019C27.1497 16.5393 27.0197 15.3942 25.821 14.7003L8.06928 4.4518C6.86875 3.75978 5.8116 4.22049 5.41206 4.4518C5.01252 4.68311 4.08345 5.3694 4.08345 6.75345V27.2485C4.08345 28.6344 5.01252 29.3188 5.41206 29.5501C5.8116 29.7814 6.87066 30.2421 8.06928 29.5501L12.7892 26.826L16.8725 29.1831L10.1109 33.0867C8.00046 34.3044 5.48088 34.3044 3.3704 33.0867C1.25991 31.869 0.000118256 29.6858 0.000118256 27.2485V6.75154C0.000118256 4.31416 1.25991 2.13103 3.3704 0.9133H3.36848Z" fill="#4C00FF"/>
<path d="M12.8752 11.8117L16.861 14.1134L15.8498 14.6964C14.6492 15.3885 14.5212 16.5355 14.5212 16.9981C14.5212 17.4607 14.6512 18.6058 15.8498 19.2997L33.6015 29.5482C34.8021 30.2402 35.8592 29.7795 36.2588 29.5482C36.6583 29.3169 37.5874 28.6306 37.5874 27.2465V6.75154C37.5874 5.36558 36.6583 4.6812 36.2588 4.44989C35.8573 4.21858 34.8002 3.75786 33.6015 4.44989L28.9046 7.16255L24.8232 4.80546L31.5618 0.9133C33.6723 -0.304433 36.1919 -0.304433 38.3023 0.9133C40.4128 2.13103 41.6726 4.31416 41.6726 6.75154V27.2465C41.6726 29.6839 40.4128 31.8651 38.3023 33.0848C36.1919 34.3025 33.6723 34.3025 31.5618 33.0848L13.81 22.8363C11.6995 21.6186 10.4397 19.4374 10.4397 16.9981C10.4397 14.9469 11.3344 13.0792 12.8752 11.8117Z" fill="#4C00FF"/>
</svg>
